<?xml version="1.0" encoding="UTF-8"?>
<!DOCTYPE svg PUBLIC "-//W3C//DTD SVG 1.1//EN" "http://www.w3.org/Graphics/SVG/1.1/DTD/svg11.dtd">
<!-- Creator: CorelDRAW -->
<svg xmlns="http://www.w3.org/2000/svg" xml:space="preserve" width="413px" height="413px" version="1.1" style="shape-rendering:geometricPrecision; text-rendering:geometricPrecision; image-rendering:optimizeQuality; fill-rule:evenodd; clip-rule:evenodd"
viewBox="0 0 412.07 412.07"
 xmlns:xlink="http://www.w3.org/1999/xlink"
 xmlns:xodm="http://www.corel.com/coreldraw/odm/2003">
 <defs>
  <style type="text/css">
   <![CDATA[
    .fil0 {fill:none}
    .fil4 {fill:#4C136D;fill-rule:nonzero}
    .fil20 {fill:#81558C;fill-rule:nonzero}
    .fil17 {fill:#895E90;fill-rule:nonzero}
    .fil19 {fill:#977199;fill-rule:nonzero}
    .fil14 {fill:#987199;fill-rule:nonzero}
    .fil16 {fill:#A37E9F;fill-rule:nonzero}
    .fil11 {fill:#A37F9F;fill-rule:nonzero}
    .fil18 {fill:#A98180;fill-rule:nonzero}
    .fil26 {fill:#B396A5;fill-rule:nonzero}
    .fil13 {fill:#B899AC;fill-rule:nonzero}
    .fil2 {fill:#BEA1AF;fill-rule:nonzero}
    .fil10 {fill:#C8ADB5;fill-rule:nonzero}
    .fil27 {fill:#CE2828;fill-rule:nonzero}
    .fil12 {fill:#D1B088;fill-rule:nonzero}
    .fil3 {fill:#E0CFBD;fill-rule:nonzero}
    .fil28 {fill:#E8DBCE;fill-rule:nonzero}
    .fil1 {fill:#EFDECC;fill-rule:nonzero}
    .fil9 {fill:#F28D01;fill-rule:nonzero}
    .fil7 {fill:#FBE291;fill-rule:nonzero}
    .fil6 {fill:#FEB300;fill-rule:nonzero}
    .fil8 {fill:#FEC233;fill-rule:nonzero}
    .fil5 {fill:#FFB200;fill-rule:nonzero}
    .fil15 {fill:#FFE099;fill-rule:nonzero}
    .fil21 {fill:url(#id21)}
    .fil24 {fill:url(#id22)}
    .fil22 {fill:url(#id23)}
    .fil25 {fill:url(#id24)}
    .fil23 {fill:url(#id25)}
   ]]>
  </style>
    <clipPath id="id0">
     <path d="M271.42 168.84l0 10.77c0.62,-0.12 1.24,-0.19 1.82,-0.19 1.25,0 2.38,0.29 3.33,0.88l23.18 0c0.81,-1.76 1.61,-3.54 2.42,-5.34l0 -11.89c-2.35,-0.73 -4.94,-1.1 -7.71,-1.1l-0.09 0c-7.01,0.01 -15.11,2.34 -22.95,6.87z"/>
    </clipPath>
    <clipPath id="id1">
     <path d="M301.98 163.01l0 12.36c1.5,-3.39 2.98,-6.85 4.43,-10.38 -1.34,-0.83 -2.83,-1.49 -4.43,-1.98z"/>
    </clipPath>
    <clipPath id="id2">
     <path d="M267.06 171.61l0 9.72c1.53,-0.9 3.08,-1.49 4.54,-1.75l0 -10.85c-1.52,0.88 -3.04,1.84 -4.54,2.88z"/>
    </clipPath>
    <clipPath id="id3">
     <path d="M262.71 177.95l0 6.88c1.42,-1.5 2.97,-2.71 4.54,-3.6l0 -9.74c-0.32,0.21 -0.63,0.44 -0.95,0.66 -0.44,2.11 -0.97,4.24 -1.6,6.34l-1.99 -0.54z"/>
    </clipPath>
    <clipPath id="id4">
     <path d="M253.99 183.85l0 9.1 1.68 0.97 2.07 0c0.53,-2.77 2.05,-5.82 4.46,-8.54 0.22,-0.25 0.46,-0.51 0.69,-0.75l0 -6.63 -2.82 -0.75c-2.26,2.11 -4.3,4.33 -6.08,6.6z"/>
    </clipPath>
    <clipPath id="id5">
     <path d="M249.64 190.41l0 0.02 4.54 2.63 0 -9.44c-1.76,2.23 -3.28,4.51 -4.54,6.79z"/>
    </clipPath>
    <clipPath id="id6">
     <path d="M275.78 194.84l0 8.23 12.34 0c1.82,-3.19 3.59,-6.48 5.33,-9.85l0 -13.11 -17.2 0c0.37,0.2 0.72,0.43 1.03,0.71 3.12,2.76 2.38,8.78 -1.5,14.02z"/>
    </clipPath>
    <clipPath id="id7">
     <path d="M293.26 180.11l0 4.73 4.36 0c0.74,-1.56 1.48,-3.14 2.21,-4.73l-6.57 0z"/>
    </clipPath>
    <clipPath id="id8">
     <path d="M293.27 184.65l0 8.92c1.5,-2.9 2.98,-5.87 4.43,-8.92l-4.43 0z"/>
    </clipPath>
    <clipPath id="id9">
     <path d="M249.82 190.54l0 -0.46c-0.06,0.12 -0.13,0.23 -0.19,0.35l0.19 0.11z"/>
    </clipPath>
    <clipPath id="id10">
     <path d="M253.99 198.8l0 21.29c1.41,0.59 2.93,0.93 4.54,1.06l0 -21.35c-1,-1.58 -1.23,-3.72 -0.75,-6.06l-2.43 0 1.73 1c-0.97,1.4 -2,2.75 -3.09,4.06z"/>
    </clipPath>
    <clipPath id="id11">
     <path d="M271.42 199.24l0 19.34c1.48,-0.6 3,-1.3 4.54,-2.09l0 -21.9c-0.43,0.59 -0.9,1.18 -1.4,1.75 -0.99,1.12 -2.05,2.09 -3.14,2.9z"/>
    </clipPath>
    <clipPath id="id12">
     <path d="M249.64 203.49l0 13.6c1.33,1.39 2.85,2.4 4.54,3.08l0 -21.6c-1.42,1.73 -2.94,3.37 -4.54,4.92z"/>
    </clipPath>
    <clipPath id="id13">
     <path d="M258.35 199.49l0 21.63c0.51,0.05 1.04,0.08 1.57,0.08 3.53,0 7.48,-0.97 11.68,-2.69l0 -19.41c-2.69,2.07 -5.6,3.2 -8.09,3.2 -1.57,0 -2.96,-0.45 -4.04,-1.4 -0.45,-0.4 -0.83,-0.88 -1.12,-1.41z"/>
    </clipPath>
    <clipPath id="id14">
     <path d="M249.82 217.27l0 -13.96c-1.41,1.38 -2.9,2.69 -4.45,3.94 0.28,3.17 1.31,6.08 3.16,8.53 0.41,0.54 0.84,1.04 1.29,1.49z"/>
    </clipPath>
    <clipPath id="id15">
     <path d="M275.78 202.88l0 9.26 6.94 0c1.87,-2.99 3.71,-6.07 5.51,-9.26l-12.45 0z"/>
    </clipPath>
    <clipPath id="id16">
     <path d="M275.78 211.96l0 4.63c2.1,-1.07 4.26,-2.29 6.45,-3.67 0.2,-0.31 0.4,-0.64 0.6,-0.96l-7.05 0z"/>
    </clipPath>
    <clipPath id="id17">
     <path d="M282.23 212.92c8.78,-13.9 16.81,-29.98 24.18,-47.94 1.66,1.03 3.11,2.32 4.28,3.88 8.04,10.64 -3.12,25.45 -20.28,38.4 -2.75,2.07 -5.49,3.98 -8.18,5.66l0 0z"/>
    </clipPath>
    <clipPath id="id18">
     <path d="M264.7 178.49l-4.63 -1.24c1.56,-1.45 3.23,-2.86 5,-4.19 0.41,-0.31 0.82,-0.62 1.23,-0.91 -0.44,2.11 -0.97,4.24 -1.6,6.34l0 0z"/>
    </clipPath>
    <clipPath id="id19">
     <path d="M245.37 207.25c-0.05,-0.59 -0.08,-1.18 -0.08,-1.77l0 -0.1c0.01,-4.67 1.52,-9.84 4.34,-14.95l7.45 4.31c-3.26,4.7 -7.21,8.9 -11.71,12.51l0 0z"/>
    </clipPath>
    <clipPath id="id20">
     <path d="M263.51 202.3c-1.57,0 -2.97,-0.45 -4.04,-1.4 -3.41,-3.03 -2.19,-9.97 2.73,-15.52 3.38,-3.8 7.61,-5.96 11.04,-5.96 1.57,0 2.97,0.45 4.04,1.4 3.42,3.03 2.2,9.98 -2.72,15.53 -3.37,3.8 -7.62,5.95 -11.05,5.95l0 0z"/>
    </clipPath>
  <linearGradient id="id21" gradientUnits="userSpaceOnUse" x1="245.43" y1="180.98" x2="245.68" y2="203.73">
   <stop offset="0" style="stop-opacity:1; stop-color:#B7A1C5"/>
   <stop offset="1" style="stop-opacity:1; stop-color:#AF99BD"/>
  </linearGradient>
  <linearGradient id="id22" gradientUnits="userSpaceOnUse" x1="262.49" y1="181.41" x2="295.1" y2="203.95">
   <stop offset="0" style="stop-opacity:1; stop-color:#DACCD9"/>
   <stop offset="1" style="stop-opacity:1; stop-color:#D2C4D1"/>
  </linearGradient>
  <linearGradient id="id23" gradientUnits="userSpaceOnUse" x1="263.44" y1="181.16" x2="296.27" y2="203.74">
   <stop offset="0" style="stop-opacity:1; stop-color:#E9DEE1"/>
   <stop offset="1" style="stop-opacity:1; stop-color:#E1D6DA"/>
  </linearGradient>
  <linearGradient id="id24" gradientUnits="userSpaceOnUse" xlink:href="#id22" x1="263.46" y1="182.51" x2="296.12" y2="204.82">
  </linearGradient>
  <linearGradient id="id25" gradientUnits="userSpaceOnUse" xlink:href="#id22" x1="266.21" y1="181.16" x2="294.2" y2="203.74">
  </linearGradient>
 </defs>
 <g id="Camada_x0020_1">
  <metadata id="CorelCorpID_0Corel-Layer"/>
  <rect class="fil0" width="412.07" height="412.07"/>
  <g id="_2241484532848">
   <path class="fil1" d="M358.17 146.99c-1.67,3.17 -5.18,4.92 -8.74,4.42l-31.97 -4.47 -19.91 142.42c-4.88,40.51 -17.29,59.55 -45.2,56.42 -0.72,-0.07 -1.45,-0.16 -2.19,-0.28l-195.86 -27.38c-31.67,-4.43 -21.71,-75.7 9.97,-71.27l30.05 4.21 8.48 -60.61 14.47 -5.39 -12.78 -6.72 1.83 -13.09 28.35 -6.56 -24.71 -19.5 6.66 -47.63c2.45,-14.01 8.27,-23.57 18.27,-27.62 4.32,-1.75 9.04,-2.18 13.65,-1.53l197.36 27.59c21.32,7.07 23.36,36 12.27,56.99z"/>
   <path class="fil2" d="M253.2 339.45c-3.6,0.01 -7.55,-0.54 -11.9,-1.75 -1.09,-1.07 -2.09,-2.26 -2.98,-3.57 -4.6,-6.79 -6.08,-16.3 -4.23,-26.96l27.56 3.86c0.08,0.01 0.17,0.02 0.25,0.02 0.02,0 0.04,0 0.06,0 8.11,-0.03 13.7,-4.98 14.6,-12.92 1.17,-10.27 -6.06,-23.17 -21.75,-26.85 -0.07,-0.02 -0.13,-0.03 -0.2,-0.04l-34.67 -4.85c7.62,-3.35 14.86,-7.96 21.72,-13.72 9.63,8.58 21.8,14.5 35.49,16.41 3.18,0.44 6.35,0.66 9.5,0.66 2.1,0 4.19,-0.09 6.27,-0.29l-4.46 31.91c0,0 -5.07,38.09 -35.26,38.09zm57.93 -200.21c-1.38,-0.53 -2.78,-1.02 -4.19,-1.47 2.79,-8.48 5.48,-17.27 8.08,-26.38l-3.89 27.85z"/>
   <path class="fil3" d="M261.96 308.85l-29.64 -4.15c-3.3,15.69 0.37,27.51 7.28,34.43 3.56,3.56 7.98,5.82 12.75,6.65 -0.72,-0.07 -1.45,-0.16 -2.19,-0.28l-195.86 -27.38c-12.06,-1.69 -18.09,-13.07 -19.17,-26.28 -1.76,-21.46 9.52,-47.73 29.14,-44.99l190.03 26.58c24.23,5.67 26.47,35.35 7.66,35.42z"/>
   <path class="fil4" d="M185.71 110.43l-1.99 -7.83c2.54,-0.64 5.12,-1.14 7.69,-1.47l1.03 8.01c-2.24,0.29 -4.51,0.72 -6.73,1.29z"/>
   <path class="fil4" d="M180.08 239.49c0.3,-2.11 0.87,-4.18 1.72,-6.14l-7.42 -3.19c-1.13,2.63 -1.9,5.39 -2.3,8.21 -0.21,1.52 -0.32,3.07 -0.31,4.6 0.01,0.99 0.05,1.98 0.13,2.94l8.05 -0.69c-0.06,-0.75 -0.1,-1.51 -0.1,-2.27 0,-1.16 0.07,-2.32 0.23,-3.46zm18.25 -28.84c-5.22,1.13 -10.18,3.5 -14.31,6.84l5.07 6.29c3.16,-2.57 6.94,-4.37 10.94,-5.23l-1.7 -7.9zm26.61 -5.88c-3.8,1.7 -8.03,3.03 -12.58,3.95l1.6 7.91c5.13,-1.03 9.94,-2.54 14.3,-4.5l-3.32 -7.36zm29.03 -70.43l-7.27 3.5c1.88,3.91 3.25,8.08 4.07,12.38l7.93 -1.51c-0.95,-4.99 -2.54,-9.83 -4.73,-14.37zm-19.48 -22.79l-4.62 6.63c3.6,2.51 6.86,5.45 9.69,8.76l6.14 -5.26c-3.28,-3.82 -7.05,-7.23 -11.21,-10.13zm-28.02 -10.54l-0.91 8.02c4.36,0.5 8.65,1.53 12.73,3.06l2.84 -7.55c-4.7,-1.77 -9.64,-2.96 -14.66,-3.53z"/>
   <path class="fil4" d="M61.45 248.86c-13.35,0 -21.62,15.43 -23.74,30.61 -2.25,16.11 2.07,34.39 16.9,36.47l195.85 27.38c10.81,1.61 19.22,-0.03 25.73,-5.01 9.95,-7.59 16.04,-23.23 19.17,-49.22l19.92 -142.45c0.17,-1.21 1.29,-2.05 2.49,-1.88l31.97 4.47c2.65,0.37 5.26,-0.94 6.48,-3.27l0 0c6.8,-12.86 8.29,-28.4 3.8,-39.57 -2.82,-7.02 -7.88,-11.94 -14.63,-14.23l-197.15 -27.57c-4.42,-0.62 -8.75,-0.14 -12.52,1.39 -8.97,3.63 -14.5,12.11 -16.92,25.92l-6.48 46.35 23.71 18.71c0.67,0.53 0.97,1.39 0.79,2.21 -0.19,0.83 -0.83,1.48 -1.66,1.67l-26.87 6.21 -1.4 10.06 11.4 6c0.77,0.41 1.23,1.22 1.17,2.09 -0.05,0.87 -0.61,1.62 -1.43,1.93l-13.23 4.93 -8.3 59.3c-0.17,1.21 -1.28,2.04 -2.48,1.88l-30.06 -4.2c-0.85,-0.12 -1.69,-0.18 -2.51,-0.18zm196.61 99.47c-2.6,0 -5.34,-0.22 -8.23,-0.65l-195.83 -27.38c-17.82,-2.49 -23.2,-23.23 -20.65,-41.44 2.54,-18.21 13.4,-36.68 31.22,-34.19l27.87 3.9 8.17 -58.42c0.12,-0.8 0.66,-1.48 1.42,-1.76l9.85 -3.67 -8.42 -4.43c-0.82,-0.44 -1.28,-1.34 -1.15,-2.26l1.83 -13.09c0.13,-0.9 0.8,-1.63 1.68,-1.84l23.88 -5.52 -21.1 -16.66c-0.62,-0.48 -0.93,-1.26 -0.82,-2.03l6.66 -47.64c0.01,-0.02 0.01,-0.05 0.02,-0.07 2.66,-15.24 9.25,-25.09 19.6,-29.28 4.49,-1.82 9.6,-2.4 14.78,-1.67l197.37 27.59c0.12,0.02 0.26,0.05 0.38,0.09 8.11,2.69 14.17,8.51 17.52,16.84 4.95,12.32 3.39,29.31 -3.99,43.27l0 0c-2.09,3.96 -6.51,6.2 -10.99,5.57l-29.79 -4.16 -19.61 140.23c-3.28,27.21 -9.91,43.79 -20.86,52.15 -5.71,4.36 -12.57,6.52 -20.81,6.52z"/>
   <path class="fil4" d="M315.28 146.64l1.96 -14.04 0.99 -7.03 0.49 -3.51c0.14,-1.14 0.36,-2.38 0.59,-3.6 0.97,-4.81 2.59,-9.62 5.41,-13.92 1.43,-2.13 3.18,-4.12 5.33,-5.71 2.15,-1.57 4.7,-2.75 7.43,-3.14 2.73,-0.44 5.57,-0.1 8.12,0.89 2.56,0.96 4.82,2.57 6.66,4.48 3.69,3.88 5.61,8.97 6.19,13.94 0.32,2.5 0.37,5 0.15,7.45 -0.2,2.46 -0.63,4.87 -1.23,7.22 -1.21,4.7 -3.12,9.14 -5.49,13.26 1.36,-4.56 2.5,-9.12 3,-13.72 0.26,-2.3 0.37,-4.59 0.31,-6.85 -0.07,-2.27 -0.33,-4.5 -0.79,-6.67 -0.96,-4.3 -2.8,-8.33 -5.58,-11.38 -1.41,-1.5 -3.04,-2.77 -4.89,-3.52 -1.84,-0.76 -3.84,-1.02 -5.79,-0.75 -1.96,0.28 -3.82,1.14 -5.48,2.34 -1.65,1.22 -3.07,2.82 -4.28,4.6 -2.37,3.62 -3.87,7.92 -4.75,12.35 -0.21,1.1 -0.4,2.19 -0.56,3.38l-0.49 3.51 -0.98 7.01 -1.96 14.02c-0.16,1.2 -1.28,2.04 -2.49,1.88 -1.2,-0.17 -2.04,-1.29 -1.87,-2.49z"/>
   <path class="fil2" d="M351.88 142.93l-31.03 -4.34 0.75 -5.36 0.98 -7.01 0.49 -3.51c0.16,-1.19 0.35,-2.28 0.56,-3.38 0.88,-4.43 2.38,-8.73 4.75,-12.35 1.21,-1.78 2.63,-3.38 4.28,-4.6 1.66,-1.2 3.52,-2.06 5.48,-2.34 0.5,-0.07 1,-0.1 1.5,-0.1 1.46,0 2.92,0.29 4.29,0.85 1.85,0.75 3.48,2.02 4.89,3.52 2.78,3.05 4.62,7.08 5.58,11.38 0.46,2.17 0.72,4.4 0.79,6.67 0.06,2.26 -0.05,4.55 -0.31,6.85 -0.5,4.6 -1.64,9.16 -3,13.72l0 0z"/>
   <path class="fil4" d="M351.88 142.93c1.36,-4.56 2.5,-9.12 3,-13.72 0.26,-2.3 0.37,-4.59 0.31,-6.85 -0.07,-2.27 -0.33,-4.5 -0.79,-6.67 -0.96,-4.3 -2.8,-8.33 -5.58,-11.38 -1.41,-1.5 -3.04,-2.77 -4.89,-3.52 -1.37,-0.56 -2.83,-0.85 -4.29,-0.85 -0.5,0 -1,0.03 -1.5,0.1 -1.96,0.28 -3.82,1.14 -5.48,2.34 -1.65,1.22 -3.07,2.82 -4.28,4.6 -2.37,3.62 -3.87,7.92 -4.75,12.35 -0.21,1.1 -0.4,2.19 -0.56,3.38l-0.49 3.51 -0.98 7.01 -0.75 5.36 -2.18 -0.31 2.42 -17.27c2.6,-16.19 10.79,-23.3 18.67,-23.3 12.44,0 24.14,17.64 12.12,45.22z"/>
   <path class="fil5" d="M351.23 211.23c-5,35.74 -38.03,60.67 -73.77,55.67 -35.75,-5 -60.67,-38.03 -55.67,-73.77 5,-35.74 38.02,-60.67 73.77,-55.67 35.74,5 60.67,38.02 55.67,73.77z"/>
   <polygon class="fil4" points="334.25,268.91 317.61,278.28 308.48,262.07 325.12,252.7 "/>
   <path class="fil6" d="M372.57 341.71l-12.58 7.08c-4.3,2.42 -9.74,0.9 -12.17,-3.4l-6.18 -10.99 -25.4 -45.09c-2.43,-4.3 -0.9,-9.75 3.4,-12.18l12.58 -7.08c0.06,-0.03 0.23,-0.12 0.52,-0.27 4.21,-2.02 9.32,-0.46 11.65,3.67l31.58 56.09c2.43,4.3 0.9,9.74 -3.4,12.17z"/>
   <path class="fil1" d="M337.05 209.25c-2.31,16.5 -12.27,30.05 -25.8,37.56l-0.02 0.01c-9.34,5.19 -20.39,7.49 -31.79,5.9 -27.91,-3.9 -47.37,-29.7 -43.47,-57.61 3.9,-27.91 29.7,-47.37 57.6,-43.47 10.63,1.49 20.02,6.14 27.38,12.88l0 0.01c11.97,10.95 18.51,27.43 16.1,44.72z"/>
   <path class="fil7" d="M337.05 209.25c-2.31,16.5 -12.27,30.05 -25.8,37.56 2.62,-2.12 3.15,-8.11 3.15,-8.11l8.66 -61.99c0.66,-6.69 -1.98,-11.94 -2.11,-12.18 11.97,10.95 18.51,27.43 16.1,44.72z"/>
   <path class="fil8" d="M341.49 314.43c-0.97,0 -1.9,-0.5 -2.41,-1.4l-1.91 -3.4 -7.85 -13.93c-0.75,-1.33 -0.28,-3.01 1.05,-3.76l3.89 -2.19c0.02,-0.01 0.07,-0.04 0.16,-0.08 0.38,-0.19 0.79,-0.28 1.19,-0.28 0.96,0 1.9,0.51 2.41,1.41l9.76 17.33c0.74,1.33 0.27,3.01 -1.06,3.76l-3.88 2.19c-0.43,0.24 -0.89,0.35 -1.35,0.35z"/>
   <path class="fil9" d="M372.57 341.71l-12.58 7.08c-4.3,2.42 -9.74,0.9 -12.17,-3.4l-6.18 -10.99c8.32,5.7 23.06,-1.38 16.56,-20.21 -0.88,-2.53 -2.07,-4.94 -3.47,-7.23l-22.51 -36.91c0.06,-0.03 0.23,-0.12 0.52,-0.27 4.21,-2.02 9.32,-0.46 11.65,3.67l31.58 56.09c2.43,4.3 0.9,9.74 -3.4,12.17z"/>
   <path class="fil4" d="M372.57 341.71l0.01 0 -0.01 0zm-35.98 -70.61c-1.14,0 -2.27,0.29 -3.29,0.87l-12.58 7.09c-3.23,1.82 -4.38,5.93 -2.56,9.16l31.58 56.09c0.88,1.57 2.32,2.7 4.06,3.18 1.73,0.49 3.55,0.27 5.11,-0.62l12.58 -7.08c3.24,-1.82 4.39,-5.94 2.57,-9.17l-31.59 -56.09c-0.88,-1.56 -2.32,-2.69 -4.06,-3.18 -0.6,-0.16 -1.21,-0.25 -1.82,-0.25zm19.04 81.05c-1.01,0 -2.02,-0.14 -3.02,-0.42 -2.86,-0.8 -5.24,-2.66 -6.7,-5.26l-31.59 -56.08c-3.02,-5.35 -1.11,-12.16 4.24,-15.17l12.58 -7.09c2.59,-1.46 5.59,-1.82 8.46,-1.02 2.86,0.8 5.25,2.67 6.71,5.26l31.58 56.09c3.02,5.35 1.12,12.15 -4.23,15.17l0 0 -12.59 7.08c-1.69,0.95 -3.55,1.44 -5.44,1.44z"/>
   <path class="fil10" d="M261.27 240.37c-8.13,-4.3 -14.77,-10.85 -19.21,-18.72 -1.78,-5.74 -2.56,-11.87 -2.16,-18.16l4.39 4.6c0.36,-0.28 0.72,-0.56 1.08,-0.84 0.28,3.17 1.31,6.08 3.16,8.53 2.84,3.76 6.75,5.41 11.39,5.41l0 0c6.38,0 14.13,-3.14 22.31,-8.27 -6.56,10.39 -13.53,19.58 -20.96,27.45zm45.56 -0.6l10.49 -74.99c2.1,2.13 4,4.45 5.67,6.94 0.19,1.51 0.25,3.2 0.07,4.99l-8 57.2c-2.52,2.24 -5.29,4.21 -8.23,5.86zm-40.53 -67.62c0.33,-1.55 0.59,-3.1 0.81,-4.63 0.29,-2.09 0.49,-4.2 0.59,-6.27l-0.21 -0.02c7.05,-3.63 14.99,-5.65 23.28,-5.65 2.35,0 4.74,0.16 7.13,0.5 3.83,0.53 7.5,1.48 10.97,2.79 -0.81,2.06 -1.63,4.1 -2.46,6.12 -3.28,-2.03 -7.4,-3.02 -11.99,-3.02 -0.01,0 -0.03,0 -0.04,0 -8.56,0.01 -18.74,3.48 -28.08,10.18z"/>
   <path class="fil11" d="M283.58 245.88c-2.2,0 -4.42,-0.15 -6.65,-0.47 -5.64,-0.78 -10.91,-2.53 -15.66,-5.04 7.43,-7.87 14.4,-17.06 20.96,-27.45 2.69,-1.68 5.43,-3.58 8.18,-5.66 17.17,-12.95 28.31,-27.76 20.28,-38.4 -1.17,-1.56 -2.62,-2.85 -4.28,-3.87 0.83,-2.02 1.65,-4.06 2.46,-6.12 1.08,0.4 2.14,0.85 3.18,1.32 1.87,1.41 3.63,2.94 5.27,4.59l-10.49 74.99c-6.94,3.91 -14.91,6.11 -23.25,6.11z"/>
   <path class="fil12" d="M315.06 233.91l8 -57.2c0.18,-1.79 0.12,-3.48 -0.07,-4.99 6.33,9.39 9.35,21.06 7.66,33.15 -1.64,11.69 -7.39,21.79 -15.59,29.04z"/>
   <path class="fil10" d="M240.51 198.16c1.93,-11.53 7.62,-21.55 15.63,-28.97 -0.42,2.19 -0.96,4.4 -1.62,6.58l5.55 1.48c-4.41,4.12 -7.94,8.63 -10.44,13.18l-1.53 -0.88c-2.19,3.15 -4.74,6.04 -7.59,8.61z"/>
   <path class="fil13" d="M242.06 221.65c-1.1,-1.94 -2.06,-3.96 -2.88,-6.05 -1.35,-4.73 -2,-9.7 -1.85,-14.8l2.57 2.69c-0.4,6.29 0.38,12.42 2.16,18.16zm25.43 -60.42l-7.46 -0.49c7.72,-4.94 16.85,-7.76 26.44,-7.76 2.26,0 4.55,0.16 6.85,0.48 5.64,0.79 10.92,2.51 15.72,4.98 -0.06,0.14 -0.11,0.29 -0.17,0.43 -3.47,-1.31 -7.14,-2.26 -10.97,-2.79 -2.39,-0.34 -4.78,-0.5 -7.13,-0.5 -8.29,0 -16.23,2.02 -23.28,5.65z"/>
   <path class="fil14" d="M312.05 160.19c-1.04,-0.47 -2.1,-0.92 -3.18,-1.32 0.06,-0.14 0.11,-0.29 0.17,-0.43 0.88,0.46 1.75,0.94 2.61,1.45 0.13,0.1 0.27,0.2 0.4,0.3z"/>
   <path class="fil13" d="M237.33 200.8c0.05,-1.8 0.2,-3.61 0.46,-5.43 1.88,-13.5 9.11,-24.95 19.23,-32.54 -0.09,1.07 -0.21,2.15 -0.36,3.22 -0.15,1.05 -0.32,2.09 -0.52,3.14 -8.01,7.42 -13.7,17.44 -15.63,28.97 -1.02,0.92 -2.08,1.8 -3.18,2.64z"/>
   <path class="fil9" d="M351.23 211.23c-5,35.74 -38.03,60.67 -73.77,55.67 -19.7,-2.76 -36.11,-14.02 -46.04,-29.57 10.07,12.74 24.86,21.77 42.21,24.19 35.75,5 68.77,-19.93 73.77,-55.67 2.24,-16.04 -1.54,-31.54 -9.64,-44.2 10.68,13.51 16.04,31.18 13.47,49.58z"/>
   <path class="fil15" d="M223.66 196.02c0.09,-0.86 0.19,-1.72 0.31,-2.59 2.34,-16.7 11.04,-31.5 24.5,-41.66 11.07,-8.35 24.27,-12.75 37.91,-12.75 2.94,0 5.91,0.21 8.87,0.62 12.99,1.82 24.82,7.48 34.22,16.23 -8.96,-7.31 -19.97,-12.35 -32.26,-14.06 -3.07,-0.43 -6.12,-0.64 -9.13,-0.64 -31.61,0 -59.23,22.93 -64.42,54.85z"/>
   <path class="fil4" d="M286.38 139.02c-13.64,0 -26.84,4.4 -37.91,12.75 -13.46,10.16 -22.16,24.96 -24.5,41.66 -4.82,34.49 19.31,66.47 53.79,71.29 16.71,2.33 33.32,-1.98 46.79,-12.14 13.46,-10.16 22.16,-24.95 24.5,-41.66 2.33,-16.7 -1.98,-33.31 -12.14,-46.78 -10.16,-13.46 -24.95,-22.16 -41.66,-24.5 -2.96,-0.41 -5.93,-0.62 -8.87,-0.62zm0.27 130.72c-3.15,0 -6.32,-0.22 -9.5,-0.66 -36.89,-5.16 -62.7,-39.37 -57.54,-76.26 2.5,-17.86 11.8,-33.69 26.21,-44.56 14.4,-10.87 32.17,-15.48 50.04,-12.98 17.87,2.5 33.7,11.8 44.57,26.21 10.87,14.4 15.48,32.17 12.98,50.04 -2.5,17.87 -11.81,33.7 -26.21,44.57 -11.84,8.94 -25.97,13.64 -40.55,13.64z"/>
   <path class="fil4" d="M286.47 152.98c-24.13,0 -45.25,17.82 -48.68,42.39 -3.76,26.86 15.04,51.77 41.91,55.53 2.3,0.32 4.58,0.48 6.84,0.48 24.13,0 45.26,-17.82 48.69,-42.39 3.76,-26.86 -15.04,-51.78 -41.91,-55.53 -2.3,-0.32 -4.59,-0.48 -6.85,-0.48zm0.07 102.07c-2.43,0 -4.88,-0.17 -7.35,-0.51 -28.87,-4.04 -49.08,-30.81 -45.04,-59.68 4.04,-28.87 30.81,-49.07 59.68,-45.04 13.98,1.96 26.37,9.24 34.88,20.51 8.5,11.27 12.11,25.19 10.16,39.17 -3.7,26.4 -26.4,45.55 -52.33,45.55z"/>
   <path class="fil4" d="M267.7 161.25l-10.52 -0.7c-0.09,1.82 -0.27,3.68 -0.52,5.5 -0.45,3.22 -1.17,6.49 -2.14,9.72l10.18 2.72c1.09,-3.65 1.9,-7.34 2.41,-10.97 0.29,-2.09 0.49,-4.2 0.59,-6.27z"/>
   <path class="fil4" d="M248.1 189.55c-2.98,4.28 -6.6,8.07 -10.77,11.25l6.96 7.29c4.96,-3.79 9.27,-8.28 12.79,-13.35l-8.98 -5.19z"/>
   <path class="fil16" d="M305.76 247.44l1.07 -7.67c2.94,-1.65 5.71,-3.62 8.23,-5.86l-0.66 4.79c0,0 -0.21,2.38 -1.02,4.67 -2.41,1.57 -4.96,2.94 -7.62,4.07zm-46.91 -4.58c-6.09,-4.15 -11.15,-9.62 -14.84,-15.93 -0.74,-1.72 -1.4,-3.48 -1.95,-5.28 4.44,7.87 11.08,14.42 19.21,18.72 -0.8,0.84 -1.61,1.68 -2.42,2.49zm64.14 -71.14c-1.67,-2.49 -3.57,-4.81 -5.67,-6.94l0.11 -0.85c1.76,1.43 3.42,2.98 4.97,4.63 0.24,0.93 0.45,1.99 0.59,3.16z"/>
   <path class="fil17" d="M286.54 251.38l0 0c-2.26,0 -4.54,-0.16 -6.84,-0.48 -7.73,-1.08 -14.8,-3.91 -20.85,-8.04 0.81,-0.81 1.62,-1.65 2.42,-2.49 4.75,2.51 10.02,4.26 15.66,5.04 2.23,0.32 4.45,0.47 6.65,0.47 8.34,0 16.31,-2.2 23.25,-6.11l-1.07 7.67c-5.96,2.55 -12.47,3.94 -19.22,3.94zm30.78 -86.6c-1.64,-1.65 -3.4,-3.18 -5.27,-4.59 0.13,0.06 0.25,0.12 0.37,0.17 1.75,1.09 3.42,2.29 5.01,3.57l-0.11 0.85z"/>
   <path class="fil18" d="M313.38 243.37c0.81,-2.29 1.02,-4.67 1.02,-4.67l0.66 -4.79c8.2,-7.25 13.95,-17.35 15.59,-29.04 1.69,-12.09 -1.33,-23.76 -7.66,-33.15 -0.14,-1.17 -0.35,-2.23 -0.59,-3.16 9.8,10.48 14.97,25.14 12.83,40.43 -2.05,14.63 -10.36,26.87 -21.85,34.38z"/>
   <path class="fil19" d="M244.01 226.93c-2.06,-3.54 -3.7,-7.35 -4.83,-11.33 0.82,2.09 1.78,4.11 2.88,6.05 0.55,1.8 1.21,3.56 1.95,5.28z"/>
   <path class="fil20" d="M312.42 160.36c-0.12,-0.05 -0.24,-0.11 -0.37,-0.17 -0.13,-0.1 -0.27,-0.2 -0.4,-0.3 0.26,0.16 0.51,0.31 0.77,0.47z"/>
   <path class="fil4" d="M286.57 253.22c-2.35,0 -4.73,-0.17 -7.13,-0.5 -27.91,-3.9 -47.37,-29.7 -43.47,-57.61 0.04,-0.28 0.08,-0.56 0.12,-0.84 -0.63,7.47 0.51,14.73 3.09,21.33 1.13,3.98 2.77,7.79 4.83,11.33 3.69,6.31 8.75,11.78 14.84,15.93 6.05,4.13 13.12,6.96 20.85,8.04 2.3,0.32 4.58,0.48 6.84,0.48l0 0c6.75,0 13.26,-1.39 19.22,-3.94 2.66,-1.13 5.21,-2.5 7.62,-4.07 11.49,-7.51 19.8,-19.75 21.85,-34.38 2.14,-15.29 -3.03,-29.95 -12.83,-40.43 -1.55,-1.65 -3.21,-3.2 -4.97,-4.63 -1.59,-1.28 -3.26,-2.48 -5.01,-3.57 -0.26,-0.16 -0.51,-0.31 -0.77,-0.47 -5.71,-4.19 -12.43,-7.16 -19.84,-8.47 0.59,0.06 1.18,0.14 1.76,0.22 27.92,3.9 47.38,29.7 43.48,57.61 -3.57,25.51 -25.43,43.97 -50.48,43.97z"/>
   <path class="fil4" d="M323.06 176.71l0.01 0 -0.01 0zm-11.83 71.95c-0.53,0 -1.06,-0.23 -1.43,-0.69 -0.63,-0.79 -0.51,-1.94 0.28,-2.58 1.47,-1.17 2.3,-4.83 2.48,-6.85 0.01,-0.03 0.01,-0.07 0.02,-0.09l8.66 -61.96c0.61,-6.22 -1.89,-11.07 -1.92,-11.12 -0.47,-0.89 -0.12,-2 0.78,-2.47 0.9,-0.47 2.01,-0.13 2.48,0.77 0.12,0.24 3.04,5.9 2.31,13.22 0,0.02 -0.01,0.05 -0.01,0.07l-8.66 61.95c-0.09,0.9 -0.75,6.87 -3.84,9.35 -0.33,0.27 -0.74,0.4 -1.15,0.4z"/>
   <path class="fil21" d="M245.29 205.47c0,-0.03 0,-0.06 0,-0.09l0 0.09z"/>
   <path class="fil22" d="M259.92 221.19c6.38,0 14.13,-3.14 22.31,-8.27 -8.18,5.13 -15.93,8.27 -22.31,8.27zm46.49 -56.2c-3.27,-2.02 -7.37,-3.02 -11.94,-3.02l-0.09 0c0.01,0 0.03,0 0.04,0 4.59,0 8.71,0.99 11.99,3.02z"/>
   <path class="fil23" d="M282.23 212.92c2.69,-1.68 5.43,-3.58 8.18,-5.66 17.17,-12.95 28.31,-27.76 20.28,-38.4 -1.17,-1.56 -2.62,-2.85 -4.28,-3.87 1.66,1.02 3.11,2.31 4.28,3.87 8.03,10.64 -3.11,25.45 -20.28,38.4 -2.75,2.08 -5.49,3.98 -8.18,5.66z"/>
   <g style="clip-path:url(#id0)">
    <image x="271.4" y="161.85" width="30.79" height="18.45" xlink:href="404_Images\404_ImgID1.png"/>
   </g>
   <g style="clip-path:url(#id1)">
    <image x="301.97" y="161.85" width="4.57" height="13.85" xlink:href="404_Images\404_ImgID2.png"/>
   </g>
   <g style="clip-path:url(#id2)">
    <image x="267.04" y="166.42" width="4.57" height="18.45" xlink:href="404_Images\404_ImgID3.png"/>
   </g>
   <g style="clip-path:url(#id3)">
    <image x="262.68" y="170.95" width="4.57" height="18.45" xlink:href="404_Images\404_ImgID4.png"/>
   </g>
   <g style="clip-path:url(#id4)">
    <image x="253.97" y="175.48" width="8.93" height="18.45" xlink:href="404_Images\404_ImgID5.png"/>
   </g>
   <g style="clip-path:url(#id5)">
    <image x="249.61" y="180.08" width="4.57" height="13.85" xlink:href="404_Images\404_ImgID6.png"/>
   </g>
   <g style="clip-path:url(#id6)">
    <image x="275.76" y="180.09" width="17.71" height="23.01" xlink:href="404_Images\404_ImgID7.png"/>
   </g>
   <g style="clip-path:url(#id7)">
    <image x="293.25" y="180.09" width="8.93" height="4.78" xlink:href="404_Images\404_ImgID8.png"/>
   </g>
   <g style="clip-path:url(#id8)">
    <image x="293.25" y="184.62" width="4.57" height="9.31" xlink:href="404_Images\404_ImgID9.png"/>
   </g>
   <g style="clip-path:url(#id9)">
    <image x="245.26" y="189.18" width="4.57" height="4.75" xlink:href="404_Images\404_ImgID10.png"/>
   </g>
   <g style="clip-path:url(#id10)">
    <image x="253.97" y="193.71" width="4.57" height="27.58" xlink:href="404_Images\404_ImgID11.png"/>
   </g>
   <g style="clip-path:url(#id11)">
    <image x="271.4" y="193.71" width="4.57" height="27.58" xlink:href="404_Images\404_ImgID12.png"/>
   </g>
   <g style="clip-path:url(#id12)">
    <image x="249.61" y="198.31" width="4.57" height="22.98" xlink:href="404_Images\404_ImgID13.png"/>
   </g>
   <g style="clip-path:url(#id13)">
    <image x="258.33" y="198.31" width="13.29" height="22.98" xlink:href="404_Images\404_ImgID14.png"/>
   </g>
   <g style="clip-path:url(#id14)">
    <image x="245.26" y="202.85" width="4.57" height="18.45" xlink:href="404_Images\404_ImgID15.png"/>
   </g>
   <g style="clip-path:url(#id15)">
    <image x="275.76" y="202.85" width="13.29" height="9.31" xlink:href="404_Images\404_ImgID16.png"/>
   </g>
   <g style="clip-path:url(#id16)">
    <image x="275.76" y="211.94" width="8.93" height="4.82" xlink:href="404_Images\404_ImgID17.png"/>
   </g>
   <g style="clip-path:url(#id17)">
    <image x="282.13" y="164.89" width="36.68" height="48.14" xlink:href="404_Images\404_ImgID18.png"/>
   </g>
   <g style="clip-path:url(#id18)">
    <image x="260" y="172.07" width="6.42" height="6.53" xlink:href="404_Images\404_ImgID19.png"/>
   </g>
   <g style="clip-path:url(#id19)">
    <image x="245.19" y="190.33" width="12.03" height="17.05" xlink:href="404_Images\404_ImgID20.png"/>
   </g>
   <g style="clip-path:url(#id20)">
    <image x="255.92" y="179.28" width="24.89" height="23.12" xlink:href="404_Images\404_ImgID21.png"/>
   </g>
   <path class="fil24" d="M252.35 347.99c-0.12,0 -0.25,-0.01 -0.38,-0.04 -7.01,-1.21 -13.15,-5.25 -17.29,-11.35 -3.94,-5.81 -7.92,-16.13 -4.51,-32.35 0.24,-1.13 1.31,-1.89 2.46,-1.73l29.47 4.12c5.69,-0.08 9.45,-3.43 10.09,-9.01 0.96,-8.48 -5.61,-19.03 -18.29,-22.04l-159.88 -22.35c-1.21,-0.17 -2.05,-1.29 -1.88,-2.49 0.17,-1.21 1.29,-2.04 2.49,-1.88l159.98 22.37c0.07,0.01 0.13,0.02 0.2,0.04 15.69,3.68 22.92,16.58 21.75,26.85 -0.9,7.94 -6.49,12.89 -14.6,12.92 -0.1,0.01 -0.21,-0.01 -0.31,-0.02l-27.56 -3.86c-1.85,10.66 -0.37,20.17 4.23,26.96 3.47,5.1 8.58,8.47 14.41,9.48 1.2,0.21 2,1.35 1.79,2.55 -0.19,1.07 -1.12,1.83 -2.17,1.83z"/>
   <path class="fil25" d="M230.17 304.22c1.22,-4.46 3.15,-8.75 5.97,-12.41 2.8,-3.66 6.43,-6.77 10.76,-8.46 2.16,-0.83 4.48,-1.32 6.81,-1.18 2.31,0.14 4.6,0.84 6.5,2.11 1.9,1.27 3.42,3.01 4.54,4.92 1.12,1.91 1.89,3.99 2.44,6.1 -0.73,-2.06 -1.66,-4.05 -2.91,-5.8 -1.24,-1.76 -2.81,-3.26 -4.64,-4.28 -1.83,-1.01 -3.91,-1.45 -5.95,-1.39 -2.06,0.04 -4.07,0.65 -5.91,1.54 -3.7,1.82 -6.72,4.87 -8.93,8.33 -2.24,3.48 -3.63,7.44 -4.38,11.48l0 0.02c-0.22,1.2 -1.37,1.99 -2.57,1.77 -1.2,-0.22 -1.99,-1.37 -1.77,-2.57 0.01,-0.06 0.03,-0.12 0.04,-0.18z"/>
   <path class="fil26" d="M262.1 306.64l-27.12 -3.79c0.81,-3.22 2.06,-6.34 3.87,-9.15 2.21,-3.46 5.23,-6.51 8.93,-8.33 1.84,-0.89 3.85,-1.5 5.91,-1.54 0.11,-0.01 0.22,-0.01 0.33,-0.01 1.94,0 3.89,0.45 5.62,1.4 1.83,1.02 3.4,2.52 4.64,4.28 1.25,1.75 2.18,3.74 2.91,5.8 -0.01,0 -0.01,0 -0.01,0 0,0 0.01,0 0.01,0 0,0 2.05,7.5 -2.24,10.99 -0.89,0.22 -1.84,0.34 -2.85,0.35z"/>
   <path class="fil4" d="M256.92 308.2c-7.47,0 -17.98,-2.06 -22.45,-3.02 0.15,-0.78 0.31,-1.56 0.51,-2.33l27.12 3.79c1.01,-0.01 1.96,-0.13 2.85,-0.35 -0.85,0.69 -1.94,1.23 -3.34,1.52 -1.32,0.27 -2.92,0.39 -4.69,0.39z"/>
   <path class="fil4" d="M234.47 305.18c-1.35,-0.29 -2.15,-0.48 -2.15,-0.48 2.99,-13.41 12.61,-21.71 21.21,-21.71 5.81,0 11.14,3.78 13.65,12.31 0,0 0,0 0.01,0 -0.73,-2.06 -1.66,-4.05 -2.91,-5.8 -1.24,-1.76 -2.81,-3.26 -4.64,-4.28 -1.73,-0.95 -3.68,-1.4 -5.62,-1.4 -0.11,0 -0.22,0 -0.33,0.01 -2.06,0.04 -4.07,0.65 -5.91,1.54 -3.7,1.82 -6.72,4.87 -8.93,8.33 -1.81,2.81 -3.06,5.93 -3.87,9.15 -0.2,0.77 -0.36,1.55 -0.51,2.33z"/>
   <path class="fil27" d="M166.36 109.63l8.2 -5.43c0.76,-0.51 0.97,-1.54 0.47,-2.31l-4.38 -6.61c-0.51,-0.77 -1.55,-0.97 -2.31,-0.47l-9.36 6.2 -7.29 -8.52c-0.6,-0.7 -1.65,-0.78 -2.35,-0.19l-6.02 5.16c-0.7,0.59 -0.79,1.65 -0.19,2.35l6.4 7.47 -8.2 5.43c-0.77,0.51 -0.98,1.54 -0.47,2.31l4.38 6.61c0.51,0.76 1.54,0.97 2.31,0.47l9.35 -6.2 7.3 8.53c0.6,0.69 1.65,0.78 2.35,0.18l6.02 -5.15c0.7,-0.6 0.78,-1.66 0.18,-2.35l-6.39 -7.48z"/>
   <path class="fil4" d="M190.42 261.36l-1.67 2.54c0,0 -1.93,1.08 -2.32,0.79 -0.1,-0.08 -0.44,-0.22 -0.87,-0.37 -1.06,-0.39 -2.66,-0.88 -2.66,-0.88l-4.38 -0.61c-0.27,-0.3 -0.52,-0.61 -0.77,-0.94 -0.18,-0.23 -0.34,-0.46 -0.51,-0.69l6.58 -4.7c1.18,1.66 2.55,2.96 4.1,3.89 0,0 0.99,0.52 2.5,0.97z"/>
   <path class="fil26" d="M239.17 341.74l-184.56 -25.8c-9.87,-1.38 -15.09,-9.95 -16.81,-20.28 12.07,13.53 48.91,22.12 88.91,22.12 39.17,0 81.37,-8.23 106.33,-28.11 -9.62,13.85 -9.42,41.34 2.45,48.07 1.11,1.47 2.34,2.81 3.68,4z"/>
   <path class="fil4" d="M242.83 344.48l-188.53 -26.36c-12.06,-1.69 -18.09,-13.07 -19.17,-26.28l0 0c0.68,1.31 1.57,2.59 2.67,3.82 1.72,10.33 6.94,18.9 16.81,20.28l184.56 25.8c1.14,1.03 2.37,1.94 3.66,2.74z"/>
   <path class="fil4" d="M244.08 344.66l-1.25 -0.18c-1.29,-0.8 -2.52,-1.71 -3.66,-2.74 -1.34,-1.19 -2.57,-2.53 -3.68,-4 1.24,0.7 2.61,1.18 4.11,1.39l4.51 5.5c0,0 -0.01,0.01 -0.03,0.03z"/>
   <path class="fil28" d="M122.45 297.24c-4.72,0 -9.76,-0.35 -14.97,-1.08 -24,-3.35 -42.41,-13.56 -41.11,-22.8 0.81,-5.82 7.45,-8.03 18.25,-8.03 6.34,0 14.12,0.76 23,2 23.99,3.36 46.94,8.95 45.64,18.18 -1.01,7.23 -13.79,11.73 -30.81,11.73z"/>
  </g>
 </g>
</svg>
