<?xml version="1.0" encoding="UTF-8"?>
<!DOCTYPE svg PUBLIC "-//W3C//DTD SVG 1.1//EN" "http://www.w3.org/Graphics/SVG/1.1/DTD/svg11.dtd">
<!-- Creator: CorelDRAW -->
<svg xmlns="http://www.w3.org/2000/svg" xml:space="preserve" width="413px" height="413px" version="1.1" style="shape-rendering:geometricPrecision; text-rendering:geometricPrecision; image-rendering:optimizeQuality; fill-rule:evenodd; clip-rule:evenodd"
viewBox="0 0 412.07 412.07"
 xmlns:xlink="http://www.w3.org/1999/xlink"
 xmlns:xodm="http://www.corel.com/coreldraw/odm/2003">
 <defs>
  <style type="text/css">
   <![CDATA[
    .fil0 {fill:none}
    .fil3 {fill:#FEFEFE;fill-rule:nonzero}
    .fil4 {fill:url(#id0);fill-rule:nonzero}
    .fil1 {fill:url(#id1);fill-rule:nonzero}
    .fil2 {fill:url(#id2);fill-rule:nonzero}
    .fil5 {fill:url(#id3);fill-rule:nonzero}
   ]]>
  </style>
  <linearGradient id="id0" gradientUnits="userSpaceOnUse" x1="309.28" y1="150" x2="338.98" y2="120.31">
   <stop offset="0" style="stop-opacity:1; stop-color:#FCB939"/>
   <stop offset="1" style="stop-opacity:1; stop-color:#FFCE36"/>
  </linearGradient>
  <linearGradient id="id1" gradientUnits="userSpaceOnUse" x1="226.11" y1="231.43" x2="345.18" y2="112.36">
   <stop offset="0" style="stop-opacity:1; stop-color:#00AFEF"/>
   <stop offset="1" style="stop-opacity:1; stop-color:#02BFF2"/>
  </linearGradient>
  <linearGradient id="id2" gradientUnits="userSpaceOnUse" x1="66.9" y1="224.04" x2="302.26" y2="224.04">
   <stop offset="0" style="stop-opacity:1; stop-color:#D2E8F8"/>
   <stop offset="1" style="stop-opacity:1; stop-color:#E2EEF9"/>
  </linearGradient>
  <linearGradient id="id3" gradientUnits="userSpaceOnUse" xlink:href="#id0" x1="82.88" y1="161.8" x2="106.93" y2="137.75">
  </linearGradient>
 </defs>
 <g id="Camada_x0020_1">
  <metadata id="CorelCorpID_0Corel-Layer"/>
  <rect class="fil0" width="412.07" height="412.07"/>
  <g id="_2641174830512">
   <path class="fil1" d="M286.78 231.43c-33.45,0 -60.67,-27.22 -60.67,-60.67 0,-26.89 18.06,-50.85 43.92,-58.28 1.13,-0.31 2.31,0 3.12,0.81 0.82,0.82 1.13,2.02 0.81,3.13 -1.42,4.95 -2.14,10 -2.14,14.99 0,29.95 24.36,54.31 54.31,54.31 4.98,0 10.03,-0.72 14.99,-2.14 1.12,-0.32 2.31,-0.01 3.13,0.81 0.81,0.81 1.12,2.01 0.8,3.12 -7.42,25.86 -31.38,43.92 -58.27,43.92z"/>
   <path class="fil2" d="M257.97 299.71c24.46,0 44.29,-19.83 44.29,-44.29 0,-24.46 -19.83,-44.29 -44.29,-44.29 -0.16,0 -0.3,0.02 -0.46,0.02 -3.94,-35.32 -33.88,-62.78 -70.25,-62.78 -28.72,0 -53.43,17.13 -64.5,41.73 -0.35,-0.01 -0.69,-0.02 -1.04,-0.02 -30.28,0 -54.82,24.54 -54.82,54.81 0,30.28 24.54,54.82 54.82,54.82l136.25 0z"/>
   <path class="fil3" d="M317.02 299.71c15.36,0 27.81,-12.45 27.81,-27.81 0,-15.36 -12.45,-27.81 -27.81,-27.81 -0.1,0 -0.19,0.01 -0.29,0.01 -2.47,-22.18 -21.27,-39.42 -44.11,-39.42 -18.04,0 -33.55,10.76 -40.5,26.2 -0.22,0 -0.44,-0.01 -0.66,-0.01 -19.01,0 -34.42,15.41 -34.42,34.42 0,19.01 15.41,34.42 34.42,34.42l85.56 0z"/>
   <path class="fil4" d="M326.19 146.87c-1.13,4.18 -2.99,4.18 -4.12,0 -1.14,-4.17 -5.48,-8.51 -9.66,-9.65 -4.17,-1.13 -4.17,-2.99 0,-4.13 4.18,-1.13 8.52,-5.48 9.66,-9.65 1.13,-4.17 2.99,-4.17 4.12,0 1.14,4.17 5.48,8.52 9.66,9.65 4.17,1.14 4.17,3 0,4.13 -4.18,1.14 -8.52,5.48 -9.66,9.65z"/>
   <path class="fil5" d="M96.57 159.26c-0.92,3.38 -2.42,3.38 -3.34,0 -0.92,-3.37 -4.44,-6.89 -7.82,-7.81 -3.38,-0.92 -3.38,-2.43 0,-3.35 3.38,-0.92 6.9,-4.43 7.82,-7.81 0.92,-3.38 2.42,-3.38 3.34,0 0.92,3.38 4.44,6.89 7.82,7.81 3.38,0.92 3.38,2.43 0,3.35 -3.38,0.92 -6.9,4.44 -7.82,7.81z"/>
  </g>
 </g>
</svg>
