<?xml version="1.0" encoding="UTF-8"?>
<!DOCTYPE svg PUBLIC "-//W3C//DTD SVG 1.1//EN" "http://www.w3.org/Graphics/SVG/1.1/DTD/svg11.dtd">
<!-- Creator: CorelDRAW -->
<svg xmlns="http://www.w3.org/2000/svg" xml:space="preserve" width="413px" height="413px" version="1.1" style="shape-rendering:geometricPrecision; text-rendering:geometricPrecision; image-rendering:optimizeQuality; fill-rule:evenodd; clip-rule:evenodd"
viewBox="0 0 412.07 412.07"
 xmlns:xlink="http://www.w3.org/1999/xlink"
 xmlns:xodm="http://www.corel.com/coreldraw/odm/2003">
 <defs>
  <style type="text/css">
   <![CDATA[
    .fil0 {fill:none}
    .fil1 {fill:#FEFEFE;fill-rule:nonzero}
    .fil6 {fill:url(#id0);fill-rule:nonzero}
    .fil7 {fill:url(#id1);fill-rule:nonzero}
    .fil8 {fill:url(#id2);fill-rule:nonzero}
    .fil2 {fill:url(#id3);fill-rule:nonzero}
    .fil3 {fill:url(#id4);fill-rule:nonzero}
    .fil5 {fill:url(#id5);fill-rule:nonzero}
    .fil4 {fill:url(#id6);fill-rule:nonzero}
   ]]>
  </style>
  <linearGradient id="id0" gradientUnits="userSpaceOnUse" x1="119.58" y1="311.88" x2="148.19" y2="311.88">
   <stop offset="0" style="stop-opacity:1; stop-color:#00AFEF"/>
   <stop offset="1" style="stop-opacity:1; stop-color:#02BFF2"/>
  </linearGradient>
  <linearGradient id="id1" gradientUnits="userSpaceOnUse" xlink:href="#id0" x1="188.58" y1="311.88" x2="217.19" y2="311.88">
  </linearGradient>
  <linearGradient id="id2" gradientUnits="userSpaceOnUse" xlink:href="#id0" x1="257.58" y1="311.88" x2="286.18" y2="311.88">
  </linearGradient>
  <linearGradient id="id3" gradientUnits="userSpaceOnUse" x1="210.4" y1="246.04" x2="331.82" y2="124.62">
   <stop offset="0" style="stop-opacity:1; stop-color:#D2E8F8"/>
   <stop offset="1" style="stop-opacity:1; stop-color:#E2EEF9"/>
  </linearGradient>
  <linearGradient id="id4" gradientUnits="userSpaceOnUse" xlink:href="#id0" x1="98.81" y1="282.06" x2="127.42" y2="282.06">
  </linearGradient>
  <linearGradient id="id5" gradientUnits="userSpaceOnUse" xlink:href="#id0" x1="232.65" y1="282.06" x2="261.26" y2="282.06">
  </linearGradient>
  <linearGradient id="id6" gradientUnits="userSpaceOnUse" xlink:href="#id0" x1="165.74" y1="282.06" x2="194.34" y2="282.06">
  </linearGradient>
 </defs>
 <g id="Camada_x0020_1">
  <metadata id="CorelCorpID_0Corel-Layer"/>
  <rect class="fil0" width="412.07" height="412.07"/>
  <g id="_2641174879856">
   <path class="fil1" d="M258.14 232.85c24.46,0 44.29,-19.83 44.29,-44.29 0,-24.46 -19.83,-44.29 -44.29,-44.29 -0.15,0 -0.3,0.02 -0.45,0.02 -3.94,-35.32 -33.89,-62.79 -70.26,-62.79 -28.72,0 -53.43,17.14 -64.49,41.74 -0.35,-0.01 -0.7,-0.03 -1.05,-0.03 -30.28,0 -54.82,24.55 -54.82,54.82 0,30.28 24.54,54.82 54.82,54.82l136.25 0z"/>
   <path class="fil2" d="M317.19 232.85c15.36,0 27.81,-12.45 27.81,-27.81 0,-15.36 -12.45,-27.81 -27.81,-27.81 -0.09,0 -0.19,0.01 -0.28,0.01 -2.48,-22.18 -21.28,-39.43 -44.12,-39.43 -18.03,0 -33.55,10.77 -40.5,26.21 -0.22,0 -0.44,-0.01 -0.66,-0.01 -19.01,0 -34.42,15.41 -34.42,34.42 0,19.01 15.41,34.42 34.42,34.42l85.56 0z"/>
   <path class="fil3" d="M107.12 300.75c-1.41,0 -2.84,-0.36 -4.15,-1.12 -3.97,-2.29 -5.33,-7.37 -3.04,-11.34l11.99 -20.77c2.29,-3.97 7.36,-5.34 11.35,-3.04 3.97,2.29 5.33,7.37 3.04,11.35l-11.99 20.76c-1.54,2.67 -4.33,4.16 -7.2,4.16z"/>
   <path class="fil4" d="M174.04 300.75c-1.41,0 -2.84,-0.36 -4.15,-1.12 -3.97,-2.29 -5.33,-7.37 -3.04,-11.34l11.99 -20.77c2.29,-3.97 7.36,-5.34 11.35,-3.04 3.97,2.29 5.33,7.37 3.04,11.35l-11.99 20.76c-1.54,2.67 -4.33,4.16 -7.2,4.16z"/>
   <path class="fil5" d="M240.96 300.75c-1.41,0 -2.84,-0.36 -4.15,-1.12 -3.97,-2.29 -5.33,-7.37 -3.04,-11.34l11.99 -20.77c2.29,-3.97 7.36,-5.34 11.35,-3.04 3.97,2.29 5.33,7.37 3.04,11.35l-11.99 20.76c-1.54,2.67 -4.33,4.16 -7.2,4.16z"/>
   <path class="fil6" d="M127.88 330.57c-1.4,0 -2.83,-0.36 -4.14,-1.12 -3.98,-2.29 -5.34,-7.37 -3.04,-11.34l11.99 -20.77c2.29,-3.97 7.36,-5.34 11.34,-3.04 3.98,2.29 5.34,7.38 3.05,11.35l-11.99 20.76c-1.54,2.67 -4.34,4.16 -7.21,4.16z"/>
   <path class="fil7" d="M196.88 330.57c-1.41,0 -2.83,-0.36 -4.14,-1.12 -3.98,-2.29 -5.34,-7.37 -3.05,-11.34l11.99 -20.77c2.3,-3.97 7.37,-5.34 11.35,-3.04 3.98,2.29 5.34,7.38 3.05,11.35l-11.99 20.76c-1.55,2.67 -4.34,4.16 -7.21,4.16z"/>
   <path class="fil8" d="M265.88 330.57c-1.41,0 -2.84,-0.36 -4.15,-1.12 -3.97,-2.29 -5.33,-7.37 -3.04,-11.34l11.99 -20.77c2.29,-3.97 7.36,-5.34 11.35,-3.04 3.97,2.29 5.33,7.38 3.04,11.35l-11.99 20.76c-1.54,2.67 -4.33,4.16 -7.2,4.16z"/>
  </g>
 </g>
</svg>
