<?xml version="1.0" encoding="UTF-8"?>
<!DOCTYPE svg PUBLIC "-//W3C//DTD SVG 1.1//EN" "http://www.w3.org/Graphics/SVG/1.1/DTD/svg11.dtd">
<!-- Creator: CorelDRAW -->
<svg xmlns="http://www.w3.org/2000/svg" xml:space="preserve" width="300px" height="300px" version="1.1" style="shape-rendering:geometricPrecision; text-rendering:geometricPrecision; image-rendering:optimizeQuality; fill-rule:evenodd; clip-rule:evenodd"
viewBox="0 0 298.32 298.32"
 xmlns:xlink="http://www.w3.org/1999/xlink"
 xmlns:xodm="http://www.corel.com/coreldraw/odm/2003">
 <defs>
  <style type="text/css">
   <![CDATA[
    .fil16 {fill:none}
    .fil14 {fill:#1E204A}
    .fil10 {fill:#1F1F44}
    .fil7 {fill:#26325F}
    .fil15 {fill:#282E61}
    .fil13 {fill:#2E4D88}
    .fil8 {fill:#344C85}
    .fil6 {fill:#5C7EB1}
    .fil2 {fill:#688DC1}
    .fil11 {fill:#6D97CE}
    .fil1 {fill:#749DD3}
    .fil0 {fill:#C8DCF5}
    .fil4 {fill:#E5E8F0}
    .fil3 {fill:#FFFEFD}
    .fil12 {fill:#FFFFFC}
    .fil5 {fill:white}
    .fil9 {fill:white;fill-rule:nonzero}
   ]]>
  </style>
 </defs>
 <g id="Camada_x0020_1">
  <metadata id="CorelCorpID_0Corel-Layer"/>
  <g id="_2605203178816">
   <path class="fil0" d="M151.82 88.8c6.23,-1.51 15.87,-2.03 25.71,-4.08 9.84,-2.05 19.89,-5.63 30.19,-8.86 10.3,-3.23 20.86,-6.1 30.25,-7.08 9.37,-0.97 17.58,-0.05 24.34,2.41 6.77,2.46 12.1,6.46 16.05,10.82 3.94,4.35 6.51,9.07 8.4,13.94 1.9,4.87 3.13,9.89 3.54,15.43 0.41,5.53 0,11.58 -0.2,14.61 -0.21,3.02 -0.21,3.02 -15.36,6.48 -15.14,3.46 -45.44,10.38 -69.86,9.28 -24.43,-1.1 -42.98,-10.23 -52.83,-19.3 -9.84,-9.07 -10.97,-18.09 -10.12,-23.86 0.85,-5.77 3.67,-8.28 9.89,-9.79zm-120.3 -21.15c-4.8,3.64 -12.38,9.59 -17.97,17.07 -5.59,7.49 -9.17,16.51 -11.37,28.56 -2.19,12.04 -2.98,27.11 -1.19,40.8 1.79,13.68 6.18,25.99 10.63,35.98 4.44,10 8.95,17.69 13.93,24.2 4.97,6.51 10.4,11.84 17.25,17.14 6.84,5.31 15.09,10.59 23.78,14.87 8.69,4.28 17.81,7.56 25.24,9.56 7.44,2 13.18,2.71 22.69,3.14 9.51,0.43 22.79,0.56 31.25,-0.05 8.45,-0.62 12.09,-1.98 13.91,-2.67 1.82,-0.68 1.82,-0.68 -18.38,-33.05 -20.2,-32.37 -60.59,-97.11 -80.78,-129.48 -20.2,-32.37 -20.2,-32.37 -21.2,-31.7 -1,0.66 -3,1.99 -7.79,5.63z"/>
   <path class="fil1" d="M38.26 50.79c-5.08,5.64 -10.82,13.63 -15.69,22.04 -4.87,8.41 -8.86,17.22 -11.74,27.53 -2.87,10.3 -4.61,22.09 -4.66,32.91 -0.05,10.81 1.59,20.65 3.69,29.11 2.1,8.46 4.67,15.53 8.3,22.91 3.64,7.39 8.36,15.07 12.87,21.38 4.51,6.3 8.82,11.23 15.84,16.86 7.02,5.64 16.76,12 28.04,17.53 11.28,5.54 24.09,10.26 35.83,13.33 11.74,3.08 22.4,4.51 34.04,5.08 11.63,0.56 24.24,0.25 38.29,-1.75 14.04,-2 29.52,-5.69 42.49,-11.17 12.97,-5.49 23.43,-12.76 33.42,-22.04 10,-9.28 19.53,-20.56 26.33,-32.24 6.79,-11.69 10.85,-23.79 12.33,-34.09 1.49,-10.3 0.41,-18.81 -1.98,-25.78 -2.39,-6.98 -6.08,-12.41 -10.54,-16.56 -4.46,-4.15 -9.68,-7.02 -15.94,-9.02 -6.25,-2 -13.53,-3.13 -26.65,-4 -13.13,-0.87 -32.09,-1.49 -46.8,-3.64 -14.71,-2.15 -25.17,-5.84 -36.32,-11.53 -11.15,-5.69 -22.99,-13.38 -33.52,-21.3 -10.54,-7.92 -19.76,-16.07 -28.71,-21.61 -8.94,-5.54 -17.61,-8.46 -25.06,-9.05 -7.46,-0.59 -13.72,1.16 -19.05,3.67 -5.33,2.51 -9.74,5.79 -14.81,11.43z"/>
   <path class="fil2" d="M135.82 258.83c2.94,0.28 5.92,0.49 8.96,0.64 11.63,0.56 24.24,0.25 38.29,-1.75 14.04,-2 29.52,-5.69 42.49,-11.17 12.97,-5.49 23.43,-12.76 33.42,-22.04 10,-9.28 19.53,-20.56 26.33,-32.24 3.26,-5.62 5.89,-11.32 7.91,-16.88l-73.79 -73.93 -0.65 -0.04 14.77 44.6 -6.77 32.3 -23.06 35.06 -33.53 14.45 -36.6 3.08 -35.67 -15.38 -5.69 -2.92 43.59 46.22z"/>
   <g>
    <polygon class="fil3" points="60.91,80.11 55.99,107.02 43.85,98.1 40.77,105.64 39.39,95.95 27.85,93.64 "/>
    <polygon class="fil4" points="43.85,98.1 40.77,105.64 39.39,95.95 39.18,95.91 59.68,81.19 "/>
    <polygon class="fil3" points="248.91,165.64 253.61,191.36 265.23,182.84 268.17,190.04 269.49,180.78 280.51,178.58 "/>
    <polygon class="fil4" points="265.23,182.84 268.17,190.04 269.49,180.78 269.69,180.74 250.09,166.67 "/>
    <polygon class="fil5" points="41.01,165.69 42.49,169.51 46.31,170.99 42.49,172.46 41.01,176.29 39.53,172.46 35.71,170.99 39.53,169.51 "/>
    <polygon class="fil5" points="268.01,137.08 269.49,133.26 273.32,131.78 269.49,130.3 268.01,126.48 266.54,130.3 262.71,131.78 266.54,133.26 "/>
    <polygon class="fil5" points="31.37,159.11 32.04,160.84 33.78,161.51 32.04,162.18 31.37,163.91 30.7,162.18 28.97,161.51 30.7,160.84 "/>
    <polygon class="fil5" points="258.38,143.65 259.05,141.92 260.78,141.25 259.05,140.58 258.38,138.85 257.71,140.58 255.98,141.25 257.71,141.92 "/>
    <g>
     <g>
      <circle class="fil6" cx="156.59" cy="156.79" r="55.44"/>
      <circle class="fil7" cx="150.44" cy="152.18" r="55.44"/>
      <path class="fil8" d="M126.29 194.34c-0.25,-1.63 -0.81,-4.65 -0.51,-6.6 0.31,-1.95 1.49,-2.82 2.82,-3.87 1.33,-1.05 2.82,-2.28 3.82,-3.61 1,-1.34 1.51,-2.77 2.31,-3.75 0.79,-0.97 1.87,-1.48 3.2,-2.1 1.33,-0.61 2.92,-1.33 4.05,-2.69 1.13,-1.36 1.8,-3.36 2.59,-4.95 0.79,-1.58 1.72,-2.76 2.38,-4.07 0.67,-1.31 1.08,-2.74 1.21,-3.79 0.13,-1.05 -0.03,-1.72 -1.21,-2.26 -1.18,-0.54 -3.38,-0.95 -5.28,-1.95 -1.89,-1 -3.48,-2.59 -4.56,-4.35 -1.07,-1.77 -1.64,-3.72 -2.87,-5.05 -1.23,-1.34 -3.13,-2.05 -5.05,-3 -1.92,-0.95 -3.87,-2.13 -5.28,-2.44 -1.41,-0.3 -2.28,0.26 -3,0.57 -0.71,0.3 -1.28,0.36 -2.15,0.15 -0.87,-0.2 -2.05,-0.67 -2.79,-1.36 -0.75,-0.69 -1.05,-1.61 -1.31,-2.46 -0.26,-0.84 -0.46,-1.61 -0.51,-2.18 -0.05,-0.56 0.05,-0.92 0.36,-1.43 0.3,-0.51 0.82,-1.18 1.1,-1.72 0.28,-0.54 0.33,-0.95 -0.21,-1.36 -0.54,-0.41 -1.66,-0.82 -2.38,-1.33 -0.72,-0.51 -1.03,-1.13 -1.18,-1.64 -0.15,-0.51 -0.15,-0.92 0.13,-1.62 0.28,-0.69 0.84,-1.66 1.77,-2.45 0.92,-0.8 2.2,-1.42 3.59,-1.75 1.38,-0.33 2.87,-0.38 3.87,-0.31 0.99,0.08 1.51,0.29 1.74,1.05 0.23,0.77 0.18,2.11 0.25,2.77 0.08,0.67 0.29,0.67 0.98,0.03 0.69,-0.64 1.87,-1.92 2.66,-2.92 0.8,-1 1.21,-1.72 1.85,-2.34 0.64,-0.61 1.51,-1.12 2.49,-1.61 0.97,-0.49 2.05,-0.95 3.19,-1.24 1.14,-0.3 2.34,-0.43 3.76,-0.68 1.43,-0.26 3.07,-0.64 3.95,-0.99 0.89,-0.35 1.01,-0.65 1.87,-0.69 0.86,-0.04 2.45,0.19 3.28,0.02 0.84,-0.16 0.91,-0.73 0.77,-1.82 -0.14,-1.08 -0.5,-2.7 -0.83,-3.93 -0.33,-1.23 -0.64,-2.08 -0.96,-2.5 -0.32,-0.42 -0.66,-0.42 -1.43,-0.09 -0.76,0.34 -1.97,1 -3.12,1.45 -1.16,0.45 -2.26,0.68 -2.99,0.78 -0.73,0.1 -1.09,0.08 -1.38,-0.36 -0.3,-0.43 -0.53,-1.28 -0.41,-1.86 0.11,-0.57 0.57,-0.88 1.09,-1.11 0.51,-0.23 1.07,-0.38 1.51,-0.54 0.44,-0.15 0.74,-0.31 1.17,-0.43 0.42,-0.13 0.96,-0.24 1.39,-0.21 0.44,0.03 0.77,0.18 1.31,0.17 0.54,-0.02 1.28,-0.2 1.77,-0.22 0.48,-0.03 0.72,0.1 1.08,0.33 0.35,0.23 0.84,0.57 1.43,0.71 0.59,0.14 1.28,0.09 1.79,-0.19 0.52,-0.29 0.85,-0.8 1.04,-0.93 0.19,-0.13 0.25,0.13 0.48,1.26 0.23,1.13 0.64,3.13 1.43,3.98 0.8,0.86 1.98,0.58 3.22,-0.21 1.24,-0.8 2.55,-2.11 3.74,-3 1.19,-0.9 2.27,-1.39 2.91,-1.85 0.62,-0.45 0.84,-0.88 0.62,-1.52 -2.8,-0.68 -5.68,-1.14 -8.64,-1.35 -0.42,0.17 -0.82,0.32 -1.17,0.46 -0.7,0.28 -1.19,0.49 -1.51,0.41 -0.32,-0.07 -0.48,-0.43 -1.23,-0.86 -0.08,-0.04 -0.17,-0.08 -0.26,-0.13 -16.11,0.19 -30.44,7.85 -39.69,19.69 -0.02,0.13 -0.04,0.25 -0.07,0.37 -0.31,1.33 -1.18,2.77 -1.98,3.87 -0.79,1.1 -1.51,1.87 -1.82,2.77 -0.3,0.9 -0.2,1.92 0.34,2.61 0.54,0.7 1.51,1.05 2.25,1.47 0.75,0.4 1.26,0.87 1.57,1.58 0.3,0.72 0.41,1.7 0.74,2.41 0.33,0.72 0.9,1.18 1.49,2 0.59,0.82 1.2,2 1.71,2.95 0.52,0.95 0.93,1.67 1.03,2.54 0.1,0.87 -0.1,1.89 -0.85,2.94 -0.74,1.05 -2.02,2.13 -2.66,3.9 -0.64,1.77 -0.64,4.23 -0.36,5.97 0.28,1.74 0.84,2.77 1.79,3.87 0.95,1.1 2.28,2.28 3.03,3.59 0.74,1.31 0.89,2.74 1.29,3.4 0.4,0.65 1.04,0.52 1.14,1.44 0.1,0.93 -0.33,2.9 -0.63,5.33 -0.29,2.44 -0.44,5.34 -0.29,7.96 0.15,2.63 0.61,4.99 1.31,6.93 0.7,1.94 1.64,3.47 2.43,4.55 0.79,1.08 1.45,1.72 2.01,2.16 0.57,0.43 1.04,0.66 1.46,0.85 0.41,0.19 0.77,0.33 0.98,0.28 0.21,-0.04 0.28,-0.27 0.03,-1.9zm49.66 -86.81c9.44,5.41 16.99,13.75 21.44,23.78 -1.45,-0.23 -2.33,-0.49 -3.21,-0.78 -0.99,-0.32 -1.99,-0.68 -3.22,-1.29 -1.23,-0.62 -2.69,-1.49 -3.81,-2.17 -1.11,-0.68 -1.88,-1.16 -2.41,-1.25 -0.52,-0.09 -0.8,0.22 -1.07,0.97 -0.27,0.76 -0.53,1.96 -1.28,2.54 -0.76,0.58 -2.02,0.52 -3.11,0.08 -1.08,-0.45 -2.01,-1.3 -2.95,-1.98 -0.95,-0.68 -1.93,-1.19 -2.14,-1.98 -0.22,-0.8 0.31,-1.88 1.28,-2.46 0.96,-0.59 2.34,-0.7 3.51,-0.85 1.16,-0.15 2.11,-0.36 2.83,-0.87 0.72,-0.52 1.2,-1.33 1.31,-2.12 0.1,-0.78 -0.18,-1.52 -0.71,-2.32 -0.52,-0.79 -1.29,-1.64 -2.06,-2.17 -0.77,-0.54 -1.54,-0.77 -2.24,-0.89 -0.71,-0.11 -1.35,-0.11 -1.81,-0.45 -0.46,-0.33 -0.74,-1 -0.83,-1.83 -0.09,-0.83 0.01,-1.83 0.3,-3.19 0.06,-0.25 0.12,-0.5 0.18,-0.77zm23.1 28.02c1.78,5.22 2.75,10.83 2.75,16.66 0,17.37 -8.58,32.73 -21.71,42.03 0.34,-2.54 1.11,-4.16 1.51,-5.39 0.44,-1.33 0.44,-2.2 0.39,-3.18 -0.05,-0.97 -0.16,-2.05 -0.03,-3.28 0.13,-1.23 0.49,-2.61 1.1,-3.92 0.62,-1.3 1.49,-2.53 2.13,-3.97 0.64,-1.44 1.05,-3.07 1.15,-4.64 0.11,-1.56 -0.1,-3.05 0.11,-4.59 0.2,-1.53 0.82,-3.12 0.2,-4.28 -0.61,-1.15 -2.46,-1.87 -4,-2.3 -1.53,-0.44 -2.76,-0.59 -3.76,-0.59 -1,0 -1.77,0.15 -3,-0.11 -1.23,-0.25 -2.92,-0.92 -4.33,-1.64 -1.41,-0.71 -2.54,-1.48 -2.59,-2.87 -0.05,-1.38 0.97,-3.38 1,-5.2 0.02,-1.82 -0.95,-3.46 -1.31,-5.12 -0.36,-1.67 -0.1,-3.36 0.69,-4.72 0.8,-1.36 2.13,-2.38 3.28,-3.49 1.16,-1.1 2.13,-2.28 3.73,-3.23 1.59,-0.95 3.81,-1.67 5.88,-1.57 2.08,0.11 4.02,1.03 5.88,1.88 1.86,0.85 3.66,1.62 5.76,2.26 1.47,0.45 3.09,0.83 5.17,1.26zm-25.31 -21.23c-0.41,0.49 -0.9,1.26 -0.97,1.78 -0.06,0.53 0.3,0.81 0.66,0.93 0.36,0.11 0.72,0.06 1.02,0.24 0.31,0.18 0.57,0.59 0.71,0.87 0.14,0.28 0.17,0.44 0.34,0.76 0.18,0.32 0.52,0.8 0.45,1.27 -0.06,0.46 -0.52,0.89 -0.75,1.11 -0.23,0.22 -0.23,0.22 0.34,0 0.58,-0.22 1.73,-0.65 2.44,-1.2 0.7,-0.55 0.96,-1.22 0.95,-1.77 -0.02,-0.55 -0.3,-0.99 -0.64,-1.31 -0.35,-0.32 -0.76,-0.52 -1.14,-0.91 -0.39,-0.38 -0.75,-0.95 -1.13,-1.42 -0.39,-0.48 -0.8,-0.86 -1.17,-0.95 -0.37,-0.09 -0.7,0.11 -1.11,0.6zm-15 -6.09c0.34,-0.49 0.98,-1.11 1.95,-1.21 0.98,-0.11 2.28,0.31 2.81,0.73 0.52,0.42 0.27,0.86 -0.09,1.18 -0.36,0.32 -0.82,0.52 -1.25,0.86 -0.42,0.33 -0.8,0.79 -1.21,0.74 -0.41,-0.05 -0.85,-0.62 -1.28,-0.87 -0.44,-0.26 -0.88,-0.21 -1.08,-0.37 -0.21,-0.17 -0.18,-0.55 0.15,-1.06z"/>
     </g>
     <g>
      <path class="fil9" d="M92.96 150.09c0.16,-0.54 0.73,-0.84 1.27,-0.68 0.54,0.16 0.85,0.73 0.68,1.27l-1.65 5.45 7.82 0.07 1.81 -5.9c0.17,-0.54 0.74,-0.84 1.28,-0.67 0.54,0.16 0.84,0.73 0.68,1.27l-14.77 48.14c-0.16,0.54 -0.73,0.84 -1.27,0.67 -0.54,-0.16 -0.85,-0.74 -0.68,-1.27l3.47 -11.3 -7.73 -0.07 -0.95 3.13c-0.16,0.54 -0.73,0.85 -1.27,0.68 -0.54,-0.16 -0.85,-0.73 -0.68,-1.27l11.99 -39.52zm-0.74 35.01l1.57 -5.12 -7.75 -0.05 -1.55 5.1 7.73 0.07zm2.2 -7.16l1.65 -5.39 -7.8 0.04 -1.61 5.3 7.76 0.05zm2.28 -7.44l1.58 -5.17 -7.82 0.02 -1.57 5.19 7.81 -0.04zm2.21 -7.22l1.55 -5.04 -7.82 -0.07 -1.56 5.14 7.83 -0.03z"/>
      <path class="fil9" d="M106.7 154.49c-0.23,-0.59 -0.79,-1.01 -1.42,-1.05 -1.2,-0.09 -2.07,1.1 -1.65,2.21 0.77,2.07 1.56,4.12 2.38,6.16 0.17,0.41 0.49,0.73 0.9,0.9 1.34,0.55 2.69,-0.79 2.14,-2.14 -0.81,-2.01 -1.58,-4.04 -2.35,-6.08zm28.82 -36.94c-0.71,-1.3 -2.6,-1.1 -3.02,0.32 -0.12,0.43 -0.08,0.84 0.13,1.23l0.53 1c0.68,1.23 2.46,1.12 2.98,-0.18 0.17,-0.46 0.14,-0.94 -0.08,-1.37l-0.54 -1zm5.26 9.58c-0.89,-1.5 -3.18,-0.81 -3.06,0.96 0.02,0.24 0.09,0.46 0.21,0.68 0.7,1.21 1.42,2.42 2.15,3.61 0.43,0.69 0.86,1.38 1.3,2.06 0.98,1.5 3.29,0.59 2.99,-1.17 -0.04,-0.22 -0.11,-0.42 -0.23,-0.6 -0.43,-0.66 -0.85,-1.33 -1.26,-2.01 -0.72,-1.17 -1.42,-2.35 -2.1,-3.53zm2.1 3.53l-2.8 1.72 2.8 -1.72zm6.96 9.69c-1.09,-1.2 -3.07,-0.27 -2.84,1.34 0.05,0.33 0.18,0.6 0.4,0.85 0.58,0.62 1.13,1.23 1.74,1.81l0.29 0.28c0.96,0.91 1.99,1.77 3.07,2.55l0.01 0c1.16,0.86 2.81,-0.15 2.57,-1.58 -0.06,-0.43 -0.31,-0.82 -0.66,-1.08 -0.95,-0.67 -1.89,-1.47 -2.74,-2.27 -0.55,-0.52 -1.07,-1.06 -1.58,-1.62l-0.26 -0.28zm12.88 8.11c-1.42,-0.35 -2.56,1.14 -1.84,2.41 0.24,0.39 0.56,0.64 1.01,0.77 2.16,0.56 4.32,0.87 6.55,0.93l0.33 0.01c1.8,0 2.31,-2.43 0.64,-3.16 -0.2,-0.08 -0.38,-0.12 -0.6,-0.12 -2.08,-0.04 -4.07,-0.31 -6.09,-0.84zm15.22 -0.61c-1.54,0.54 -1.46,2.72 0.12,3.15 0.94,0.22 3.04,-0.83 3.91,-1.24 1.13,-0.54 2.36,-1.24 3.33,-2.04 0.39,-0.31 0.63,-0.81 0.62,-1.31 -0.03,-1.36 -1.58,-2.1 -2.66,-1.26 -0.64,0.48 -1.22,0.87 -1.92,1.25 -0.43,0.23 -0.87,0.44 -1.31,0.64 -0.04,0 -1.84,0.73 -2.09,0.81zm10.02 -10.03c-0.2,0.69 0.06,1.43 0.66,1.83 0.92,0.62 2.17,0.17 2.49,-0.89 0.32,-1.08 0.55,-2.17 0.69,-3.29 0.16,-1.23 0.2,-2.52 0.14,-3.75 -0.04,-0.56 -0.33,-1.04 -0.81,-1.33 -1.15,-0.65 -2.53,0.19 -2.47,1.5 0.06,1.06 0.02,2.12 -0.11,3.17 -0.12,0.94 -0.32,1.85 -0.59,2.76zm-2 -14.32c0.99,1.4 3.18,0.57 2.98,-1.15 -0.04,-0.26 -0.13,-0.5 -0.28,-0.72l-0.1 -0.14c-1.32,-1.87 -2.97,-3.52 -4.78,-4.93 -0.55,-0.43 -1.29,-0.45 -1.88,-0.09 -0.96,0.61 -1.03,1.98 -0.13,2.68 1.57,1.23 3.06,2.7 4.19,4.35zm-12.18 -6.55c0.52,-0.06 0.97,-0.36 1.24,-0.81 0.66,-1.17 -0.27,-2.6 -1.61,-2.45 -2.28,0.25 -4.69,0.86 -6.8,1.77 -0.62,0.27 -1.02,0.93 -0.98,1.61 0.08,1.14 1.24,1.85 2.3,1.4 1.81,-0.78 3.89,-1.31 5.85,-1.52zm-11.43 7.49c0.11,-0.34 0.1,-0.73 -0.02,-1.06 -0.55,-1.47 -2.62,-1.42 -3.11,0.06 -0.19,0.61 -0.34,1.2 -0.46,1.83 -0.33,1.8 -0.38,3.58 -0.11,5.4 0.27,1.7 2.62,1.91 3.19,0.27 0.08,-0.26 0.09,-0.49 0.06,-0.75 -0.22,-1.4 -0.19,-2.91 0.08,-4.31 0.1,-0.49 0.21,-0.96 0.37,-1.44zm3.03 14.11c-0.37,-0.57 -1.06,-0.85 -1.71,-0.7 -1.14,0.24 -1.66,1.54 -1.03,2.51 1.24,1.88 2.66,3.63 4.13,5.34l0.01 0.02c0.46,0.52 1.18,0.7 1.84,0.45 1.05,-0.43 1.37,-1.75 0.63,-2.61 -0.26,-0.28 -0.54,-0.63 -0.79,-0.93 -1.09,-1.31 -2.15,-2.66 -3.08,-4.08zm10.55 12.11c-0.42,-0.43 -1.05,-0.6 -1.63,-0.43 -1.19,0.35 -1.58,1.83 -0.72,2.72 1.51,1.55 3.02,3.1 4.48,4.69l0.02 0.02c1.2,1.27 3.27,0.08 2.78,-1.59 -0.08,-0.24 -0.19,-0.44 -0.36,-0.63 -1.5,-1.62 -3.03,-3.2 -4.57,-4.78zm10.9 12.65c-0.96,-1.46 -3.25,-0.62 -2.99,1.16 0.03,0.22 0.12,0.44 0.24,0.63 0.5,0.78 0.96,1.56 1.36,2.39 0.46,0.96 0.82,1.96 1.03,3.01l0 -0.01c0.21,1.04 1.32,1.62 2.29,1.18 0.68,-0.31 1.08,-1.07 0.93,-1.81 -0.28,-1.33 -0.71,-2.55 -1.29,-3.78 -0.46,-0.97 -0.99,-1.86 -1.57,-2.77zm0.62 17.13c0.17,-0.26 0.25,-0.56 0.26,-0.87 0,-1.65 -2.11,-2.28 -3.02,-0.91 -0.51,0.81 -1.09,1.56 -1.71,2.29 -0.72,0.84 -1.47,1.61 -2.28,2.37 -1.06,1 -0.41,2.77 1.05,2.84 0.45,0.01 0.84,-0.13 1.18,-0.43 0.91,-0.85 1.74,-1.71 2.55,-2.65 0.71,-0.85 1.37,-1.71 1.97,-2.64zm-12.92 11.16c1.5,-0.78 0.98,-3.05 -0.73,-3.09 -0.29,0 -0.53,0.05 -0.78,0.18l-0.12 0.06c-1.02,0.53 -2.05,1 -3.12,1.43 -0.83,0.33 -1.69,0.64 -2.55,0.91 -0.68,0.22 -1.15,0.83 -1.15,1.55 0,1.11 1.07,1.91 2.13,1.57 0.94,-0.29 1.87,-0.62 2.79,-0.99 1.2,-0.48 2.38,-1.02 3.53,-1.62l0 0zm-16.27 4.62c0.63,-0.07 1.17,-0.49 1.38,-1.09 0.39,-1.13 -0.54,-2.3 -1.73,-2.17 -0.75,0.08 -1.5,0.14 -2.25,0.21 -1.37,0.1 -2.73,0.17 -4.1,0.15 -1.72,0 -2.29,2.28 -0.79,3.1 0.24,0.12 0.48,0.18 0.76,0.19 1.46,0.01 2.91,-0.07 4.38,-0.17 0.78,-0.06 1.57,-0.14 2.35,-0.22zm-16.84 -0.97c1.48,0.36 2.63,-1.38 1.7,-2.59 -0.23,-0.3 -0.56,-0.51 -0.93,-0.6 -2.04,-0.49 -4.09,-1.12 -6.05,-1.88 -1.53,-0.57 -2.85,1.13 -1.93,2.47 0.2,0.28 0.42,0.46 0.74,0.59 2.09,0.81 4.3,1.49 6.47,2.01zm-15.47 -6.83c1.32,0.93 3.07,-0.44 2.46,-1.95 -0.12,-0.3 -0.31,-0.55 -0.58,-0.74 -1.72,-1.18 -3.4,-2.56 -4.93,-3.97 -1.31,-1.2 -3.32,0.23 -2.61,1.88 0.1,0.2 0.22,0.37 0.38,0.52 1.62,1.52 3.45,3.01 5.28,4.26zm-12.01 -11.85c1,1.36 3.16,0.52 2.96,-1.16 -0.03,-0.28 -0.14,-0.54 -0.3,-0.77 -1.25,-1.73 -2.38,-3.49 -3.43,-5.35l-0.01 -0.01c-0.69,-1.26 -2.59,-1.05 -3,0.34 -0.12,0.45 -0.08,0.86 0.14,1.27 1.12,1.98 2.31,3.84 3.64,5.68z"/>
      <g>
       <path class="fil10" d="M109.2 96.73c4.33,3.46 11.71,9.1 15.74,12.07 4.02,2.97 4.69,3.28 5.46,2.9 0.77,-0.39 1.64,-1.47 3.05,-6.49 1.41,-5.02 3.35,-13.99 4.38,-20.37 1.02,-6.39 1.13,-10.18 -0.05,-13.89 -1.18,-3.72 -3.64,-7.36 -6.49,-9.74 -2.84,-2.39 -6.07,-3.52 -9.27,-4.08 -3.21,-0.56 -6.39,-0.56 -9.95,0.62 -3.56,1.17 -7.51,3.53 -10.05,6.4 -2.53,2.87 -3.66,6.26 -4.3,9.15 -0.64,2.9 -0.8,5.31 -0.46,7.51 0.33,2.21 1.15,4.21 2.07,5.82 0.93,1.61 1.95,2.85 3.1,4.1 1.16,1.26 2.44,2.54 6.77,6zm9.48 -27.86c4.92,0 8.92,3.99 8.92,8.92 0,4.92 -4,8.92 -8.92,8.92 -4.93,0 -8.92,-4 -8.92,-8.92 0,-4.93 3.99,-8.92 8.92,-8.92z"/>
       <g>
        <circle class="fil11" cx="115.19" cy="108.04" r="12.38"/>
        <circle class="fil12" cx="115.19" cy="108.04" r="10.46"/>
        <polygon class="fil13" points="109.05,102.9 110.05,101.9 115.19,107.04 120.34,101.9 121.34,102.9 116.19,108.04 121.34,113.19 120.34,114.19 115.19,109.04 110.05,114.19 109.05,113.19 114.19,108.04 "/>
       </g>
      </g>
     </g>
    </g>
    <path class="fil5" d="M207.47 215.94l9.7 9.59 6.89 -6.88 -9.59 -9.59c13.94,-15.34 22.44,-35.73 22.44,-58.09 0,-29.9 -15.18,-56.25 -38.25,-71.76l-7.77 8.05c21.06,13.38 35.03,36.91 35.03,63.71 0,41.66 -33.77,75.43 -75.43,75.43 -41.66,0 -75.44,-33.77 -75.44,-75.43 0,-19.93 7.73,-38.05 20.35,-51.53l-7.79 -7.76c-14.6,15.48 -23.55,36.34 -23.55,59.29 0,47.73 38.7,86.42 86.43,86.42 21.83,0 41.76,-8.1 56.98,-21.45z"/>
    <g>
     <path class="fil14" d="M224.06 215.79l0.03 0.03 36.66 35.74c1.17,1.13 1.42,2.79 0.55,3.68l-6.78 6.95c-0.86,0.89 -2.52,0.68 -3.69,-0.46l-36.66 -35.73 -0.03 -0.04 9.92 -10.17z"/>
     <path class="fil15" d="M219.18 220.79l38.82 37.84 -3.48 3.56c-0.86,0.89 -2.52,0.68 -3.69,-0.46l-36.66 -35.73 -0.03 -0.04 5.04 -5.17z"/>
     <polygon class="fil5" points="256.14,247.06 258.33,249.2 248.41,259.38 246.21,257.24 "/>
    </g>
   </g>
  </g>
  <rect class="fil16" width="298.32" height="298.32"/>
 </g>
</svg>
