<?xml version="1.0" encoding="UTF-8"?>
<!DOCTYPE svg PUBLIC "-//W3C//DTD SVG 1.1//EN" "http://www.w3.org/Graphics/SVG/1.1/DTD/svg11.dtd">
<!-- Creator: CorelDRAW -->
<svg xmlns="http://www.w3.org/2000/svg" xml:space="preserve" width="413px" height="413px" version="1.1" style="shape-rendering:geometricPrecision; text-rendering:geometricPrecision; image-rendering:optimizeQuality; fill-rule:evenodd; clip-rule:evenodd"
viewBox="0 0 412.07 412.07"
 xmlns:xlink="http://www.w3.org/1999/xlink"
 xmlns:xodm="http://www.corel.com/coreldraw/odm/2003">
 <defs>
  <style type="text/css">
   <![CDATA[
    .fil0 {fill:none}
    .fil2 {fill:url(#id0);fill-rule:nonzero}
    .fil3 {fill:url(#id1);fill-rule:nonzero}
    .fil1 {fill:url(#id2);fill-rule:nonzero}
   ]]>
  </style>
  <linearGradient id="id0" gradientUnits="userSpaceOnUse" x1="70.12" y1="219.31" x2="341.96" y2="219.31">
   <stop offset="0" style="stop-opacity:1; stop-color:#00AFEF"/>
   <stop offset="1" style="stop-opacity:1; stop-color:#02BFF2"/>
  </linearGradient>
  <linearGradient id="id1" gradientUnits="userSpaceOnUse" xlink:href="#id0" x1="171.86" y1="156.09" x2="297.72" y2="156.09">
  </linearGradient>
  <linearGradient id="id2" gradientUnits="userSpaceOnUse" xlink:href="#id0" x1="127.63" y1="255.99" x2="297.72" y2="255.99">
  </linearGradient>
 </defs>
 <g id="Camada_x0020_1">
  <metadata id="CorelCorpID_0Corel-Layer"/>
  <rect class="fil0" width="412.07" height="412.07"/>
  <g id="_2241330369168">
   <path class="fil1" d="M276.35 277.35c-11.8,0 -21.37,-9.56 -21.37,-21.36 0,-2.87 0.59,-5.6 1.61,-8.1l-122.33 0c-3.66,0 -6.63,-2.97 -6.63,-6.64 0,-3.66 2.97,-6.63 6.63,-6.63l141.56 0c0.09,0 0.17,0.02 0.26,0.02 0.09,0 0.18,-0.02 0.27,-0.02 11.8,0 21.37,9.56 21.37,21.37 0,11.8 -9.57,21.36 -21.37,21.36z"/>
   <path class="fil2" d="M320.59 240.68c-11.8,0 -21.37,-9.57 -21.37,-21.37 0,-2.87 0.58,-5.6 1.61,-8.1l-224.08 0c-3.66,0 -6.63,-2.97 -6.63,-6.64 0,-3.66 2.97,-6.63 6.63,-6.63l243.3 0c0.09,0 0.18,0.02 0.27,0.03 0.09,-0.01 0.18,-0.03 0.27,-0.03 11.8,0 21.37,9.57 21.37,21.37 0,11.8 -9.57,21.37 -21.37,21.37z"/>
   <path class="fil3" d="M276.35 134.72c-11.8,0 -21.37,9.57 -21.37,21.37 0,2.87 0.59,5.6 1.61,8.1l-78.09 0c-3.67,0 -6.64,2.97 -6.64,6.63 0,3.67 2.97,6.64 6.64,6.64l97.32 0c0.09,0 0.17,-0.03 0.26,-0.03 0.09,0 0.18,0.03 0.27,0.03 11.8,0 21.37,-9.57 21.37,-21.37 0,-11.8 -9.57,-21.37 -21.37,-21.37z"/>
  </g>
 </g>
</svg>
