<?xml version="1.0" encoding="UTF-8"?>
<!DOCTYPE svg PUBLIC "-//W3C//DTD SVG 1.1//EN" "http://www.w3.org/Graphics/SVG/1.1/DTD/svg11.dtd">
<!-- Creator: CorelDRAW -->
<svg xmlns="http://www.w3.org/2000/svg" xml:space="preserve" width="413px" height="413px" version="1.1" style="shape-rendering:geometricPrecision; text-rendering:geometricPrecision; image-rendering:optimizeQuality; fill-rule:evenodd; clip-rule:evenodd"
viewBox="0 0 412.07 412.07"
 xmlns:xlink="http://www.w3.org/1999/xlink"
 xmlns:xodm="http://www.corel.com/coreldraw/odm/2003">
 <defs>
  <style type="text/css">
   <![CDATA[
    .fil0 {fill:none}
    .fil1 {fill:#FEFEFE;fill-rule:nonzero}
    .fil6 {fill:url(#id0);fill-rule:nonzero}
    .fil4 {fill:url(#id1);fill-rule:nonzero}
    .fil2 {fill:url(#id2);fill-rule:nonzero}
    .fil3 {fill:url(#id3);fill-rule:nonzero}
    .fil5 {fill:url(#id4);fill-rule:nonzero}
   ]]>
  </style>
  <linearGradient id="id0" gradientUnits="userSpaceOnUse" x1="170.26" y1="289.77" x2="220.11" y2="289.77">
   <stop offset="0" style="stop-opacity:1; stop-color:#00AFEF"/>
   <stop offset="1" style="stop-opacity:1; stop-color:#02BFF2"/>
  </linearGradient>
  <linearGradient id="id1" gradientUnits="userSpaceOnUse" xlink:href="#id0" x1="116.72" y1="296.97" x2="174.88" y2="296.97">
  </linearGradient>
  <linearGradient id="id2" gradientUnits="userSpaceOnUse" x1="210.4" y1="235.37" x2="331.82" y2="113.95">
   <stop offset="0" style="stop-opacity:1; stop-color:#D2E8F8"/>
   <stop offset="1" style="stop-opacity:1; stop-color:#E2EEF9"/>
  </linearGradient>
  <linearGradient id="id3" gradientUnits="userSpaceOnUse" xlink:href="#id0" x1="87.07" y1="284.37" x2="130.68" y2="284.37">
  </linearGradient>
  <linearGradient id="id4" gradientUnits="userSpaceOnUse" xlink:href="#id0" x1="219.65" y1="282.58" x2="261.19" y2="282.58">
  </linearGradient>
 </defs>
 <g id="Camada_x0020_1">
  <metadata id="CorelCorpID_0Corel-Layer"/>
  <rect class="fil0" width="412.07" height="412.07"/>
  <g id="_2641181618608">
   <path class="fil1" d="M258.14 222.18c24.46,0 44.29,-19.83 44.29,-44.29 0,-24.47 -19.83,-44.3 -44.29,-44.3 -0.15,0 -0.3,0.03 -0.45,0.03 -3.94,-35.32 -33.89,-62.79 -70.26,-62.79 -28.72,0 -53.43,17.14 -64.5,41.74 -0.34,-0.01 -0.69,-0.03 -1.04,-0.03 -30.28,0 -54.82,24.54 -54.82,54.82 0,30.27 24.54,54.82 54.82,54.82l136.25 0z"/>
   <path class="fil2" d="M317.19 222.18c15.36,0 27.81,-12.45 27.81,-27.82 0,-15.36 -12.45,-27.81 -27.81,-27.81 -0.1,0 -0.19,0.02 -0.28,0.02 -2.48,-22.18 -21.28,-39.43 -44.12,-39.43 -18.04,0 -33.55,10.76 -40.5,26.21 -0.22,-0.01 -0.44,-0.02 -0.66,-0.02 -19.01,0 -34.42,15.41 -34.42,34.43 0,19.01 15.41,34.42 34.42,34.42l85.56 0z"/>
   <path class="fil3" d="M95.37 316.06c-1.41,0 -2.84,-0.36 -4.15,-1.12 -3.97,-2.29 -5.33,-7.37 -3.04,-11.34l27 -46.76c2.29,-3.97 7.37,-5.33 11.34,-3.04 3.98,2.3 5.34,7.38 3.04,11.35l-26.99 46.75c-1.54,2.67 -4.33,4.16 -7.2,4.16z"/>
   <path class="fil4" d="M125.02 341.24c-1.4,0 -2.83,-0.35 -4.14,-1.11 -3.97,-2.29 -5.33,-7.38 -3.04,-11.35l41.53 -71.94c2.3,-3.97 7.38,-5.33 11.35,-3.04 3.97,2.3 5.33,7.38 3.04,11.35l-41.53 71.94c-1.54,2.66 -4.33,4.15 -7.21,4.15z"/>
   <path class="fil5" d="M227.95 312.47c-1.41,0 -2.83,-0.36 -4.14,-1.12 -3.98,-2.29 -5.34,-7.37 -3.04,-11.34l24.92 -43.17c2.29,-3.97 7.37,-5.33 11.34,-3.04 3.98,2.3 5.34,7.38 3.04,11.35l-24.92 43.16c-1.53,2.67 -4.33,4.16 -7.2,4.16z"/>
   <path class="fil6" d="M178.56 326.86c-1.4,0 -2.83,-0.36 -4.14,-1.12 -3.97,-2.29 -5.33,-7.37 -3.04,-11.35l33.23 -57.55c2.29,-3.97 7.37,-5.33 11.34,-3.04 3.98,2.3 5.34,7.38 3.04,11.35l-33.22 57.55c-1.54,2.66 -4.33,4.16 -7.21,4.16z"/>
  </g>
 </g>
</svg>
