<?xml version="1.0" encoding="UTF-8"?>
<!DOCTYPE svg PUBLIC "-//W3C//DTD SVG 1.1//EN" "http://www.w3.org/Graphics/SVG/1.1/DTD/svg11.dtd">
<!-- Creator: CorelDRAW -->
<svg xmlns="http://www.w3.org/2000/svg" xml:space="preserve" width="413px" height="413px" version="1.1" style="shape-rendering:geometricPrecision; text-rendering:geometricPrecision; image-rendering:optimizeQuality; fill-rule:evenodd; clip-rule:evenodd"
viewBox="0 0 412.07 412.07"
 xmlns:xlink="http://www.w3.org/1999/xlink"
 xmlns:xodm="http://www.corel.com/coreldraw/odm/2003">
 <defs>
  <style type="text/css">
   <![CDATA[
    .fil0 {fill:none}
    .fil1 {fill:#DFEDF9}
   ]]>
  </style>
 </defs>
 <g id="Camada_x0020_1">
  <metadata id="CorelCorpID_0Corel-Layer"/>
  <rect class="fil0" width="412.07" height="412.07"/>
  <path class="fil1" d="M193.6 320.43c0.78,-0.77 1.15,-1.31 2.11,-1.74 -0.1,3.42 -0.42,13.4 0.55,16.04 3.31,8.96 16.5,8.97 19.59,-0.17 1.2,-3.55 0.09,-11.64 0.56,-15.96 1.23,0.8 6.49,6.24 7.9,7.64 2.74,2.71 4.71,5.79 8.82,6.84 9.49,2.4 16.75,-8.34 11.21,-15.74 -2.7,-3.6 -8.18,-8.24 -11.69,-11.79l-15.54 -15.48c-1.34,-1.32 -0.81,-4.85 -0.78,-6.86 1.56,0.65 2.72,2.5 3.96,3.67l7.57 7.49c10.68,10.51 25.5,-4.44 14.39,-14.69l-5.58 -5.56c-0.64,-0.58 -1,-1.08 -1.78,-1.83l-11.08 -10.91c-1.68,-1.66 -5.82,-6.25 -7.48,-7.2l0.12 -16.1c2.43,-1.24 4.51,-1.71 6.75,-3.1l5.53 -3.98c3.29,1.67 7.06,3.88 10.29,5.83 2.25,1.36 3.47,1.03 4.22,3.92l8.66 31.99c1.33,4.79 2.7,7.71 7,9.29 5.03,1.83 9.7,-0.53 11.77,-3.2 3.29,-4.24 2.23,-7.43 0.9,-12.51 -1.02,-3.88 -2.73,-8.9 -3.35,-12.66 0.83,0.2 4.22,2.12 4.92,2.64 1.27,0.94 1.54,3.73 1.96,5.27l6.15 22.76c0.77,2.75 2.17,9.22 3.37,11.12 4.09,6.46 14.59,6.66 18.18,-0.77 3.01,-6.25 -2.54,-16.43 -3.53,-23.26 4.07,1.5 8.47,5.32 12.49,6.84 11.59,4.39 19.23,-11 9.98,-17.82l-11.28 -6.53c-0.36,-0.25 -0.32,-0.23 -0.56,-0.46 0.07,-0.05 0.17,-0.1 0.23,-0.12 1.66,-0.76 3.86,-1.11 5.68,-1.62 1.99,-0.56 3.76,-0.96 5.79,-1.51 4.39,-1.19 7.62,-1.72 9.8,-4.63 5.49,-7.31 0.26,-16.53 -7.79,-16.73 -3.31,-0.08 -18.88,4.56 -23.14,5.69 -3.79,1 -7.58,1.94 -11.37,3.03 -1.75,0.5 -4.29,1.55 -5.85,0.84 -1.12,-0.52 -3.65,-1.79 -4.48,-2.73 7.82,-3.37 18.71,-2.38 22.64,-9.52 3.57,-6.48 -0.46,-17.68 -14.32,-14.02 -10.56,2.79 -21.25,5.4 -31.9,8.47 -1.87,0.54 -1.89,0.74 -3.36,-0.16 -3.14,-1.93 -10.47,-5.47 -12.66,-7.36 0.79,-7.27 0.5,-7.25 -0.04,-14.22 1.54,-0.5 3.72,-1.96 5.32,-2.87 1.83,-1.04 3.5,-1.98 5.22,-2.94 4.79,-2.66 2.62,-2.1 12.07,0.27 8.49,2.13 16.85,4.47 25.5,6.8 13,3.5 17.95,-7.13 14.27,-14.03 -2.18,-4.09 -5.11,-4.76 -10.14,-6.12 -4.13,-1.11 -8.62,-2.56 -12.73,-3.35 0.05,-0.06 0.13,-0.12 0.17,-0.16l4.55 -2.75c1.65,-0.76 14.95,3.38 17.01,3.92 3.8,1.01 7.68,2.12 11.62,3.09 3.36,0.83 8.55,2.69 11.93,2.58 8.39,-0.26 13.1,-10.87 7.07,-17.07 -3.28,-3.36 -10.58,-4.62 -15.76,-5.91 -1.51,-0.38 -4.28,-0.64 -5.52,-1.76 2.19,-0.78 9.9,-5.34 12.12,-6.9 3.45,-2.44 5.64,-8.25 2.58,-13.48 -2.07,-3.55 -7.61,-6.52 -13.19,-4.05 -2.02,0.9 -3.92,2.31 -5.95,3.39 -1.71,0.91 -4.63,2.93 -6.11,3.31 1.1,-3.97 2.14,-7.69 3.19,-11.67 1.14,-4.32 2.46,-7.73 0.27,-11.95 -1.54,-2.98 -4.63,-5.34 -8.84,-5.48 -4.08,-0.13 -7.79,2.58 -9.21,5.08 -1.4,2.47 -2.45,8.15 -3.38,11.38l-6.18 22.77c-0.47,1.72 -0.68,4.16 -2.13,5.07 -1.04,0.65 -3.74,2.26 -4.68,2.52 1.48,-8.72 7.7,-19.03 2.33,-25.24 -2.44,-2.82 -6.88,-5.22 -11.99,-3.04 -4.11,1.76 -5.32,4.35 -6.68,9.25 -2.43,8.77 -4.74,17.27 -6.89,25.63 -2.29,8.94 -1.38,7.5 -6,10.3 -1.72,1.05 -3.4,1.89 -5.18,2.93 -1.68,0.97 -3.21,2.17 -5.06,2.8 -3.22,-1.96 -5.51,-5.19 -12.34,-6.95 -0.14,-2.71 -0.58,-15.02 0.44,-16.41 1.14,-1.54 2.76,-2.79 4.21,-4.23l21.12 -20.75c2.58,-2.58 5.44,-6.62 3.28,-12.05 -1.54,-3.85 -5.19,-6.93 -10.39,-6.56 -5.12,0.37 -7.73,4.22 -10.22,6.7 -1.28,1.29 -7.35,7.55 -8.44,8.1 -0.47,-6.8 0,-6.78 4.7,-10.94 2.79,-2.48 5.1,-5.33 7.87,-7.79 1.47,-1.3 14.35,-13.82 15.46,-15.55 5.21,-8.12 -2.05,-18.15 -11.43,-15.59 -4.31,1.18 -9.64,7.48 -12.65,10.77 -0.8,0.88 -2.76,3 -4.01,3.65 -0.04,-3.96 0.56,-13.22 -0.61,-16.31 -1.33,-3.51 -4.89,-6.68 -9.89,-6.63 -4.77,0.06 -8.4,3.29 -9.6,6.9 -1.07,3.23 -0.53,11.94 -0.57,16.02 -1.33,-0.7 -2.99,-2.69 -4.11,-3.84 -1.36,-1.4 -2.4,-2.46 -3.95,-3.88 -2.81,-2.57 -4.47,-5.62 -8.62,-6.72 -9.48,-2.52 -16.62,7.87 -11.24,15.74 1.78,2.61 5.39,5.66 7.7,7.95l11.71 11.49c0.59,0.58 1.25,1.16 2.01,1.9 5.39,5.18 7.34,5.47 6.42,12.77 -2.88,-2.53 -5.72,-5.52 -8.48,-8.3 -1.4,-1.42 -2.84,-2.79 -4.32,-4.12 -8.76,-7.86 -24.43,4.65 -12.69,16.31 6.88,6.84 14.23,13.75 20.98,20.89 5.8,6.12 4.97,1.23 4.59,20.53 -2.56,0.59 -4.63,1.69 -6.74,2.93 -8.13,4.76 -1.98,5.93 -16.05,-1.93 -2.71,-1.51 -3.44,-1.15 -4.13,-4.03 -2.51,-10.49 -5.71,-21.19 -8.52,-31.56 -1.33,-4.9 -2.48,-7.74 -6.78,-9.44 -4.69,-1.86 -9.63,0.02 -11.85,2.92 -5.41,7.08 0.81,16.44 2.24,25.4 -1.35,-0.56 -3.42,-1.77 -4.74,-2.53 -1.12,-0.65 -0.91,-0.8 -1.3,-2.36l-3.84 -14.21c-1.13,-4.13 -4.82,-19.86 -6.38,-22.52 -4.04,-6.86 -14.77,-6.96 -18.27,0.5 -2.96,6.31 2.13,15.6 3.54,23.36 -2.06,-0.67 -4.31,-2.26 -6.3,-3.45 -1.64,-0.98 -4.25,-2.63 -5.99,-3.33 -11.25,-4.55 -19.73,10.18 -10.21,17.72 1.48,1.17 10.2,6.11 11.99,6.73 -0.41,0.41 -0.16,0.26 -0.84,0.59l-2.08 0.56c-1.04,0.27 -1.86,0.52 -2.89,0.78 -4.87,1.28 -12.76,2.51 -15.69,5.98 -5.66,6.71 -0.89,16.57 7.22,16.89 3.73,0.15 19.03,-4.36 23.63,-5.66 21.49,-6.08 14.07,-4.09 21.67,-1.36 -0.43,0.36 -0.04,0.17 -0.86,0.52 -1.64,0.72 -3.67,1.02 -5.43,1.49 -6.52,1.71 -13.68,2.33 -16.53,7.89 -0.94,1.85 -1.46,4.43 -0.91,6.89 0.59,2.63 1.58,3.67 3,5.12 3.32,3.39 6.99,3.35 12.12,1.91 8.48,-2.37 17.1,-4.59 25.74,-6.81 8.01,-2.05 7.18,-3.07 12.07,-0.16 1.71,1.01 3.35,1.94 5.18,2.96 1.23,0.69 3.83,2.33 5.14,2.74 -0.11,2.58 -0.65,4.55 -0.62,7.35 0.01,2.57 0.45,4.6 0.63,6.92 -2.74,2.13 -7.35,4.29 -10.22,5.91 -2.4,1.36 -2.71,2.5 -5.83,1.59 -10.63,-3.06 -21.18,-5.61 -31.91,-8.51 -13.43,-3.64 -18.08,7.6 -14.22,14.23 2.35,4.06 4.68,4.61 10.24,6.01 2.9,0.72 10.2,2.37 12.47,3.43 -5.15,3.34 -4.55,3.35 -10.4,1.8 -6.86,-1.82 -30.96,-8.9 -34.95,-8.7 -8.41,0.43 -12.66,10.43 -7.14,16.99 2.98,3.54 13.32,5.39 18.54,6.74 0.44,0.11 0.93,0.2 1.47,0.34l1.33 0.54c-2.32,2.15 -8.94,4.99 -11.97,7.06 -3.45,2.34 -5.77,8.44 -2.62,13.52 2.22,3.57 7.43,6.52 12.98,4.08 4.11,-1.81 7.97,-5.36 12.2,-6.69 -0.84,3.84 -2.11,7.81 -3.11,11.5 -1.1,4.06 -2.53,7.78 -0.45,11.97 3.6,7.24 14.49,6.95 18.19,0.4 1.65,-2.91 5.34,-18.3 6.43,-22.49 1.01,-3.85 2,-7.57 3.09,-11.37 0.5,-1.76 0.58,-4.25 2.05,-5.21 1.03,-0.68 3.71,-2.24 4.81,-2.6 -1.65,9.11 -7.62,19.17 -2.21,25.45 2.51,2.92 6.9,4.79 11.9,2.82 4.01,-1.58 5.45,-4.6 6.66,-9.28l8.54 -31.82c0.49,-1.95 0.18,-1.68 1.7,-2.56l12.79 -7.21c1.93,1.19 3.35,2.64 5.74,4.06 1.94,1.16 4.63,1.9 6.58,3 0.31,2.09 0.53,15.18 -0.43,16.41 -1.45,1.87 -23.14,22.88 -25.18,24.82 -11.3,10.81 3.56,24.51 12.97,16.29 2.94,-2.57 10.59,-11.21 12.72,-12.38 0.05,1.32 0.03,2.64 0.05,3.97 0.04,3.89 -1.12,3.24 -4.84,7l-15.46 15.25c-1.25,1.16 -2.52,2.73 -3.87,3.98 -1.17,1.1 -2.85,2.58 -3.71,3.81 -5.43,7.78 1.57,18.47 11.27,15.8 4.21,-1.17 9.57,-7.46 12.63,-10.57 0.66,-0.67 1.24,-1.38 1.89,-2.03zm12.44 -125.68c6.23,0 11.29,5.05 11.29,11.29 0,6.23 -5.06,11.29 -11.29,11.29 -6.24,0 -11.29,-5.06 -11.29,-11.29 0,-6.24 5.05,-11.29 11.29,-11.29z"/>
 </g>
</svg>
