<?xml version="1.0" encoding="UTF-8"?>
<!DOCTYPE svg PUBLIC "-//W3C//DTD SVG 1.1//EN" "http://www.w3.org/Graphics/SVG/1.1/DTD/svg11.dtd">
<!-- Creator: CorelDRAW -->
<svg xmlns="http://www.w3.org/2000/svg" xml:space="preserve" width="413px" height="413px" version="1.1" style="shape-rendering:geometricPrecision; text-rendering:geometricPrecision; image-rendering:optimizeQuality; fill-rule:evenodd; clip-rule:evenodd"
viewBox="0 0 412.07 412.07"
 xmlns:xlink="http://www.w3.org/1999/xlink"
 xmlns:xodm="http://www.corel.com/coreldraw/odm/2003">
 <defs>
  <style type="text/css">
   <![CDATA[
    .fil0 {fill:none}
    .fil2 {fill:#FEFEFE;fill-rule:nonzero}
    .fil4 {fill:url(#id0);fill-rule:nonzero}
    .fil3 {fill:url(#id1);fill-rule:nonzero}
    .fil1 {fill:url(#id2);fill-rule:nonzero}
    .fil5 {fill:url(#id3);fill-rule:nonzero}
   ]]>
  </style>
  <linearGradient id="id0" gradientUnits="userSpaceOnUse" x1="82.92" y1="296.59" x2="126.53" y2="296.59">
   <stop offset="0" style="stop-opacity:1; stop-color:#00AFEF"/>
   <stop offset="1" style="stop-opacity:1; stop-color:#02BFF2"/>
  </linearGradient>
  <linearGradient id="id1" gradientUnits="userSpaceOnUse" x1="210.4" y1="247.95" x2="331.82" y2="126.54">
   <stop offset="0" style="stop-opacity:1; stop-color:#D2E8F8"/>
   <stop offset="1" style="stop-opacity:1; stop-color:#E2EEF9"/>
  </linearGradient>
  <linearGradient id="id2" gradientUnits="userSpaceOnUse" x1="189.05" y1="324.04" x2="289.23" y2="223.85">
   <stop offset="0" style="stop-opacity:1; stop-color:#FCB939"/>
   <stop offset="1" style="stop-opacity:1; stop-color:#FFCE36"/>
  </linearGradient>
  <linearGradient id="id3" gradientUnits="userSpaceOnUse" xlink:href="#id0" x1="127.08" y1="296.59" x2="170.7" y2="296.59">
  </linearGradient>
 </defs>
 <g id="Camada_x0020_1">
  <metadata id="CorelCorpID_0Corel-Layer"/>
  <rect class="fil0" width="412.07" height="412.07"/>
  <g id="_2641182546368">
   <path class="fil1" d="M235.7 219.23c-6.85,0 -15.26,4.85 -18.69,10.78l-21.88 37.89c-3.42,5.94 -0.63,10.38 6.2,9.88l17.87 -1.32c6.83,-0.5 9.75,4.02 6.48,10.04l-19.88 36.58c-3.27,6.02 -1.62,7.38 3.68,3.03l71.86 -59.1c5.29,-4.35 4.02,-7.63 -2.82,-7.28l-27.46 1.41c-6.84,0.35 -9.64,-4.22 -6.21,-10.16l12.08 -20.93c3.43,-5.93 0.62,-10.8 -6.23,-10.8l-15 -0.02z"/>
   <path class="fil2" d="M258.14 234.76c24.46,0 44.29,-19.83 44.29,-44.29 0,-24.46 -19.83,-44.29 -44.29,-44.29 -0.15,0 -0.3,0.02 -0.45,0.02 -3.94,-35.32 -33.89,-62.78 -70.26,-62.78 -28.72,0 -53.43,17.13 -64.49,41.73 -0.35,-0.01 -0.7,-0.03 -1.05,-0.03 -30.28,0 -54.82,24.55 -54.82,54.82 0,30.28 24.54,54.82 54.82,54.82l136.25 0z"/>
   <path class="fil3" d="M317.19 234.76c15.36,0 27.82,-12.45 27.82,-27.81 0,-15.36 -12.46,-27.81 -27.82,-27.81 -0.09,0 -0.19,0.01 -0.28,0.01 -2.48,-22.18 -21.28,-39.42 -44.12,-39.42 -18.03,0 -33.55,10.76 -40.5,26.2 -0.22,0 -0.44,-0.01 -0.66,-0.01 -19.01,0 -34.42,15.41 -34.42,34.42 0,19.01 15.41,34.42 34.42,34.42l85.56 0z"/>
   <path class="fil4" d="M91.22 328.28c-1.41,0 -2.84,-0.36 -4.15,-1.11 -3.97,-2.3 -5.33,-7.38 -3.04,-11.35l26.99 -46.76c2.29,-3.97 7.38,-5.33 11.35,-3.04 3.97,2.3 5.33,7.37 3.04,11.35l-26.99 46.75c-1.54,2.67 -4.33,4.16 -7.2,4.16z"/>
   <path class="fil5" d="M135.38 328.28c-1.41,0 -2.83,-0.36 -4.14,-1.11 -3.97,-2.3 -5.33,-7.38 -3.04,-11.35l26.99 -46.76c2.29,-3.97 7.38,-5.33 11.35,-3.04 3.97,2.3 5.33,7.37 3.04,11.35l-26.99 46.75c-1.54,2.67 -4.33,4.16 -7.21,4.16z"/>
  </g>
 </g>
</svg>
